M48
; DRILL file {KiCad (5.1.7)-1} date 11/11/20 23:56:40
; FORMAT={-:-/ absolute / metric / decimal}
; #@! TF.CreationDate,2020-11-11T23:56:40-08:00
; #@! TF.GenerationSoftware,Kicad,Pcbnew,(5.1.7)-1
FMAT,2
METRIC
T1C0.400
T2C1.000
T3C1.100
T4C2.500
%
G90
G05
T1
X9.144Y18.161
X9.652Y32.004
X13.335Y19.177
X14.605Y19.685
X14.781Y10.16
X15.748Y35.052
X15.875Y25.4
X17.145Y24.892
X21.336Y27.051
X40.64Y15.24
X49.276Y20.32
T2
X2.54Y20.32
X2.54Y17.78
X2.54Y15.24
X2.54Y12.7
X32.004Y24.892
X32.004Y19.892
T3
X46.228Y10.668
X48.768Y10.668
X51.308Y10.668
X46.228Y34.544
X48.768Y34.544
X51.308Y34.544
X29.972Y10.668
X32.512Y10.668
X35.052Y10.668
X29.972Y34.544
X32.512Y34.544
X35.052Y34.544
T4
X3.048Y35.56
X3.048Y27.76
X54.864Y26.088
X54.864Y18.288
T0
M30
