%TF.GenerationSoftware,KiCad,Pcbnew,(5.1.7)-1*%
%TF.CreationDate,2020-11-11T23:56:32-08:00*%
%TF.ProjectId,H-Bridge,482d4272-6964-4676-952e-6b696361645f,rev?*%
%TF.SameCoordinates,PXac78580PY6fe96a0*%
%TF.FileFunction,Copper,L2,Bot*%
%TF.FilePolarity,Positive*%
%FSLAX46Y46*%
G04 Gerber Fmt 4.6, Leading zero omitted, Abs format (unit mm)*
G04 Created by KiCad (PCBNEW (5.1.7)-1) date 2020-11-11 23:56:32*
%MOMM*%
%LPD*%
G01*
G04 APERTURE LIST*
%TA.AperFunction,ComponentPad*%
%ADD10O,1.700000X1.700000*%
%TD*%
%TA.AperFunction,ComponentPad*%
%ADD11R,1.700000X1.700000*%
%TD*%
%TA.AperFunction,ComponentPad*%
%ADD12O,1.905000X2.000000*%
%TD*%
%TA.AperFunction,ComponentPad*%
%ADD13R,1.905000X2.000000*%
%TD*%
%TA.AperFunction,ComponentPad*%
%ADD14C,3.900000*%
%TD*%
%TA.AperFunction,ComponentPad*%
%ADD15C,2.000000*%
%TD*%
%TA.AperFunction,ComponentPad*%
%ADD16R,2.000000X2.000000*%
%TD*%
%TA.AperFunction,ViaPad*%
%ADD17C,0.800000*%
%TD*%
%TA.AperFunction,Conductor*%
%ADD18C,0.500000*%
%TD*%
%TA.AperFunction,Conductor*%
%ADD19C,5.000000*%
%TD*%
%TA.AperFunction,Conductor*%
%ADD20C,0.254000*%
%TD*%
%TA.AperFunction,Conductor*%
%ADD21C,0.100000*%
%TD*%
G04 APERTURE END LIST*
D10*
%TO.P,J1,4*%
%TO.N,+12V*%
X2540000Y12700000D03*
%TO.P,J1,3*%
%TO.N,SIG_A*%
X2540000Y15240000D03*
%TO.P,J1,2*%
%TO.N,SIG_B*%
X2540000Y17780000D03*
D11*
%TO.P,J1,1*%
%TO.N,GND*%
X2540000Y20320000D03*
%TD*%
D12*
%TO.P,Q4,3*%
%TO.N,GND*%
X29972000Y10668000D03*
%TO.P,Q4,2*%
%TO.N,OUT_B*%
X32512000Y10668000D03*
D13*
%TO.P,Q4,1*%
%TO.N,Net-(Q4-Pad1)*%
X35052000Y10668000D03*
%TD*%
D12*
%TO.P,Q3,3*%
%TO.N,OUT_B*%
X51308000Y34544000D03*
%TO.P,Q3,2*%
%TO.N,+12V*%
X48768000Y34544000D03*
D13*
%TO.P,Q3,1*%
%TO.N,Net-(Q3-Pad1)*%
X46228000Y34544000D03*
%TD*%
D12*
%TO.P,Q2,3*%
%TO.N,GND*%
X46228000Y10668000D03*
%TO.P,Q2,2*%
%TO.N,OUT_A*%
X48768000Y10668000D03*
D13*
%TO.P,Q2,1*%
%TO.N,Net-(Q2-Pad1)*%
X51308000Y10668000D03*
%TD*%
D12*
%TO.P,Q1,3*%
%TO.N,OUT_A*%
X35052000Y34544000D03*
%TO.P,Q1,2*%
%TO.N,+12V*%
X32512000Y34544000D03*
D13*
%TO.P,Q1,1*%
%TO.N,Net-(Q1-Pad1)*%
X29972000Y34544000D03*
%TD*%
D14*
%TO.P,J3,2*%
%TO.N,OUT_B*%
X54864000Y26088000D03*
%TO.P,J3,1*%
%TO.N,OUT_A*%
%TA.AperFunction,ComponentPad*%
G36*
G01*
X56563999Y16338000D02*
X53164001Y16338000D01*
G75*
G02*
X52914000Y16588001I0J250001D01*
G01*
X52914000Y19987999D01*
G75*
G02*
X53164001Y20238000I250001J0D01*
G01*
X56563999Y20238000D01*
G75*
G02*
X56814000Y19987999I0J-250001D01*
G01*
X56814000Y16588001D01*
G75*
G02*
X56563999Y16338000I-250001J0D01*
G01*
G37*
%TD.AperFunction*%
%TD*%
%TO.P,J2,2*%
%TO.N,GND*%
X3048000Y27760000D03*
%TO.P,J2,1*%
%TO.N,+12V*%
%TA.AperFunction,ComponentPad*%
G36*
G01*
X1348001Y37510000D02*
X4747999Y37510000D01*
G75*
G02*
X4998000Y37259999I0J-250001D01*
G01*
X4998000Y33860001D01*
G75*
G02*
X4747999Y33610000I-250001J0D01*
G01*
X1348001Y33610000D01*
G75*
G02*
X1098000Y33860001I0J250001D01*
G01*
X1098000Y37259999D01*
G75*
G02*
X1348001Y37510000I250001J0D01*
G01*
G37*
%TD.AperFunction*%
%TD*%
D15*
%TO.P,C1,2*%
%TO.N,GND*%
X32004000Y19892000D03*
D16*
%TO.P,C1,1*%
%TO.N,+12V*%
X32004000Y24892000D03*
%TD*%
D17*
%TO.N,GND*%
X9144000Y18161000D03*
X21336000Y27051000D03*
X15875000Y25400000D03*
X14605000Y19685000D03*
X9652000Y32004000D03*
%TO.N,OUT_A*%
X15748000Y35052000D03*
X49276000Y20320000D03*
%TO.N,OUT_B*%
X14781000Y10160000D03*
%TO.N,Net-(Q2-Pad1)*%
X17145000Y24892000D03*
X40640000Y15240000D03*
%TO.N,Net-(Q4-Pad1)*%
X13335000Y19177000D03*
%TD*%
D18*
%TO.N,OUT_A*%
X15748000Y35052000D02*
X21844000Y35052000D01*
X21844000Y35052000D02*
X25908000Y30988000D01*
X25908000Y30988000D02*
X33528000Y30988000D01*
X35052000Y32512000D02*
X35052000Y34544000D01*
X33528000Y30988000D02*
X35052000Y32512000D01*
D19*
X54864000Y18288000D02*
X47244000Y18288000D01*
X47244000Y18288000D02*
X45212000Y18288000D01*
D18*
%TO.N,OUT_B*%
X14781000Y10160000D02*
X14781000Y11225000D01*
X14781000Y11225000D02*
X15748000Y12192000D01*
X15748000Y12192000D02*
X20828000Y12192000D01*
X20828000Y12192000D02*
X21844000Y13208000D01*
X21844000Y13208000D02*
X30988000Y13208000D01*
X32512000Y11684000D02*
X32512000Y10668000D01*
X30988000Y13208000D02*
X32512000Y11684000D01*
%TO.N,Net-(Q2-Pad1)*%
X19685000Y22352000D02*
X17145000Y24892000D01*
X33528000Y22352000D02*
X19685000Y22352000D01*
X40640000Y15240000D02*
X33528000Y22352000D01*
%TO.N,Net-(Q4-Pad1)*%
X13335000Y18034000D02*
X13335000Y19177000D01*
X29464000Y17272000D02*
X14097000Y17272000D01*
X14097000Y17272000D02*
X13335000Y18034000D01*
X35052000Y11684000D02*
X29464000Y17272000D01*
X35052000Y10668000D02*
X35052000Y11684000D01*
%TD*%
D20*
%TO.N,OUT_A*%
X35941000Y33528000D02*
X35943440Y33503224D01*
X35950667Y33479399D01*
X35962403Y33457443D01*
X35978197Y33438197D01*
X35997553Y33422330D01*
X37501381Y32419778D01*
X51130013Y12733977D01*
X50488156Y12306072D01*
X50355500Y12306072D01*
X50231018Y12293812D01*
X50111320Y12257502D01*
X50001006Y12198537D01*
X49904315Y12119185D01*
X49824963Y12022494D01*
X49765998Y11912180D01*
X49732709Y11802441D01*
X49713553Y11789670D01*
X49694291Y11773896D01*
X49678477Y11754668D01*
X49666718Y11732724D01*
X49659466Y11708907D01*
X49657000Y11684000D01*
X49657000Y9779000D01*
X47879000Y9779000D01*
X47879000Y11684000D01*
X47876560Y11708776D01*
X47869333Y11732601D01*
X47857597Y11754557D01*
X47841803Y11773803D01*
X47822447Y11789670D01*
X46318619Y12792222D01*
X32689987Y32478023D01*
X34106447Y33422330D01*
X34125709Y33438104D01*
X34141523Y33457332D01*
X34153282Y33479276D01*
X34160534Y33503093D01*
X34163000Y33528000D01*
X34163000Y35433000D01*
X35941000Y35433000D01*
X35941000Y33528000D01*
%TA.AperFunction,Conductor*%
D21*
G36*
X35941000Y33528000D02*
G01*
X35943440Y33503224D01*
X35950667Y33479399D01*
X35962403Y33457443D01*
X35978197Y33438197D01*
X35997553Y33422330D01*
X37501381Y32419778D01*
X51130013Y12733977D01*
X50488156Y12306072D01*
X50355500Y12306072D01*
X50231018Y12293812D01*
X50111320Y12257502D01*
X50001006Y12198537D01*
X49904315Y12119185D01*
X49824963Y12022494D01*
X49765998Y11912180D01*
X49732709Y11802441D01*
X49713553Y11789670D01*
X49694291Y11773896D01*
X49678477Y11754668D01*
X49666718Y11732724D01*
X49659466Y11708907D01*
X49657000Y11684000D01*
X49657000Y9779000D01*
X47879000Y9779000D01*
X47879000Y11684000D01*
X47876560Y11708776D01*
X47869333Y11732601D01*
X47857597Y11754557D01*
X47841803Y11773803D01*
X47822447Y11789670D01*
X46318619Y12792222D01*
X32689987Y32478023D01*
X34106447Y33422330D01*
X34125709Y33438104D01*
X34141523Y33457332D01*
X34153282Y33479276D01*
X34160534Y33503093D01*
X34163000Y33528000D01*
X34163000Y35433000D01*
X35941000Y35433000D01*
X35941000Y33528000D01*
G37*
%TD.AperFunction*%
%TD*%
D20*
%TO.N,GND*%
X57277000Y27017434D02*
X57154798Y27312457D01*
X56871901Y27735842D01*
X56511842Y28095901D01*
X56088457Y28378798D01*
X55618017Y28573660D01*
X55118600Y28673000D01*
X54609400Y28673000D01*
X54109983Y28573660D01*
X53639543Y28378798D01*
X53216158Y28095901D01*
X52856099Y27735842D01*
X52573202Y27312457D01*
X52378340Y26842017D01*
X52279000Y26342600D01*
X52279000Y25833400D01*
X52378340Y25333983D01*
X52573202Y24863543D01*
X52856099Y24440158D01*
X53216158Y24080099D01*
X53639543Y23797202D01*
X54109983Y23602340D01*
X54609400Y23503000D01*
X55118600Y23503000D01*
X55618017Y23602340D01*
X56088457Y23797202D01*
X56511842Y24080099D01*
X56871901Y24440158D01*
X57154798Y24863543D01*
X57277000Y25158566D01*
X57277000Y20512342D01*
X57191961Y20615961D01*
X57057386Y20726405D01*
X56903850Y20808471D01*
X56737253Y20859008D01*
X56664176Y20866205D01*
X56614140Y20907269D01*
X56069517Y21198376D01*
X55478567Y21377638D01*
X55018002Y21423000D01*
X46041325Y21423000D01*
X38114092Y32873448D01*
X38040543Y32961482D01*
X37944235Y33040352D01*
X36703000Y33867842D01*
X36703000Y35544000D01*
X44637428Y35544000D01*
X44637428Y33544000D01*
X44649688Y33419518D01*
X44685998Y33299820D01*
X44744963Y33189506D01*
X44824315Y33092815D01*
X44921006Y33013463D01*
X45031320Y32954498D01*
X45151018Y32918188D01*
X45275500Y32905928D01*
X47180500Y32905928D01*
X47304982Y32918188D01*
X47424680Y32954498D01*
X47534994Y33013463D01*
X47631685Y33092815D01*
X47711037Y33189506D01*
X47755905Y33273447D01*
X47881766Y33170155D01*
X48157552Y33022745D01*
X48456797Y32931970D01*
X48768000Y32901319D01*
X49079204Y32931970D01*
X49378449Y33022745D01*
X49654235Y33170155D01*
X49895963Y33368537D01*
X50038000Y33541609D01*
X50180037Y33368537D01*
X50421766Y33170155D01*
X50697552Y33022745D01*
X50996797Y32931970D01*
X51308000Y32901319D01*
X51619204Y32931970D01*
X51918449Y33022745D01*
X52194235Y33170155D01*
X52435963Y33368537D01*
X52634345Y33610266D01*
X52781755Y33886052D01*
X52872530Y34185297D01*
X52895500Y34418515D01*
X52895500Y34669486D01*
X52872530Y34902704D01*
X52781755Y35201949D01*
X52634345Y35477735D01*
X52435963Y35719463D01*
X52194234Y35917845D01*
X51918448Y36065255D01*
X51619203Y36156030D01*
X51308000Y36186681D01*
X50996796Y36156030D01*
X50697551Y36065255D01*
X50421765Y35917845D01*
X50180037Y35719463D01*
X50038000Y35546391D01*
X49895963Y35719463D01*
X49654234Y35917845D01*
X49378448Y36065255D01*
X49079203Y36156030D01*
X48768000Y36186681D01*
X48456796Y36156030D01*
X48157551Y36065255D01*
X47881765Y35917845D01*
X47755905Y35814554D01*
X47711037Y35898494D01*
X47631685Y35995185D01*
X47534994Y36074537D01*
X47424680Y36133502D01*
X47304982Y36169812D01*
X47180500Y36182072D01*
X45275500Y36182072D01*
X45151018Y36169812D01*
X45031320Y36133502D01*
X44921006Y36074537D01*
X44824315Y35995185D01*
X44744963Y35898494D01*
X44685998Y35788180D01*
X44649688Y35668482D01*
X44637428Y35544000D01*
X36703000Y35544000D01*
X36703000Y35560000D01*
X36690799Y35683882D01*
X36654664Y35803004D01*
X36595983Y35912787D01*
X36517013Y36009013D01*
X36420787Y36087983D01*
X36311004Y36146664D01*
X36191882Y36182799D01*
X36068000Y36195000D01*
X34036000Y36195000D01*
X33912118Y36182799D01*
X33792996Y36146664D01*
X33683213Y36087983D01*
X33586987Y36009013D01*
X33508017Y35912787D01*
X33476422Y35853678D01*
X33398234Y35917845D01*
X33122448Y36065255D01*
X32823203Y36156030D01*
X32512000Y36186681D01*
X32200796Y36156030D01*
X31901551Y36065255D01*
X31625765Y35917845D01*
X31499905Y35814554D01*
X31455037Y35898494D01*
X31375685Y35995185D01*
X31278994Y36074537D01*
X31168680Y36133502D01*
X31048982Y36169812D01*
X30924500Y36182072D01*
X29019500Y36182072D01*
X28895018Y36169812D01*
X28775320Y36133502D01*
X28665006Y36074537D01*
X28568315Y35995185D01*
X28488963Y35898494D01*
X28429998Y35788180D01*
X28393688Y35668482D01*
X28381428Y35544000D01*
X28381428Y33544000D01*
X28393688Y33419518D01*
X28429998Y33299820D01*
X28488963Y33189506D01*
X28568315Y33092815D01*
X28665006Y33013463D01*
X28775320Y32954498D01*
X28895018Y32918188D01*
X29019500Y32905928D01*
X30924500Y32905928D01*
X31048982Y32918188D01*
X31168680Y32954498D01*
X31278994Y33013463D01*
X31375685Y33092815D01*
X31455037Y33189506D01*
X31499905Y33273447D01*
X31625766Y33170155D01*
X31901552Y33022745D01*
X32075393Y32970011D01*
X32055642Y32953545D01*
X31978269Y32856030D01*
X31921408Y32745294D01*
X31887243Y32625592D01*
X31877086Y32501525D01*
X31891330Y32377861D01*
X31929425Y32259352D01*
X31989908Y32150552D01*
X32182059Y31873000D01*
X26274579Y31873000D01*
X22500534Y35647044D01*
X22472817Y35680817D01*
X22338059Y35791411D01*
X22184313Y35873589D01*
X22017490Y35924195D01*
X21887477Y35937000D01*
X21887469Y35937000D01*
X21844000Y35941281D01*
X21800531Y35937000D01*
X16286454Y35937000D01*
X16238256Y35969205D01*
X16049898Y36047226D01*
X15849939Y36087000D01*
X15646061Y36087000D01*
X15446102Y36047226D01*
X15257744Y35969205D01*
X15088226Y35855937D01*
X14944063Y35711774D01*
X14830795Y35542256D01*
X14752774Y35353898D01*
X14713000Y35153939D01*
X14713000Y34950061D01*
X14752774Y34750102D01*
X14830795Y34561744D01*
X14944063Y34392226D01*
X15088226Y34248063D01*
X15257744Y34134795D01*
X15446102Y34056774D01*
X15646061Y34017000D01*
X15849939Y34017000D01*
X16049898Y34056774D01*
X16238256Y34134795D01*
X16286454Y34167000D01*
X21477422Y34167000D01*
X25251470Y30392951D01*
X25279183Y30359183D01*
X25312951Y30331470D01*
X25312953Y30331468D01*
X25413940Y30248590D01*
X25413941Y30248589D01*
X25567687Y30166411D01*
X25683903Y30131157D01*
X25734509Y30115805D01*
X25749306Y30114348D01*
X25864523Y30103000D01*
X25864531Y30103000D01*
X25908000Y30098719D01*
X25951469Y30103000D01*
X33407444Y30103000D01*
X42208019Y17391058D01*
X42301624Y17082483D01*
X42592731Y16537860D01*
X42984495Y16060495D01*
X43319536Y15785533D01*
X45705908Y12338552D01*
X45779457Y12250518D01*
X45875765Y12171648D01*
X47117000Y11344158D01*
X47117000Y9652000D01*
X47129201Y9528118D01*
X47165336Y9408996D01*
X47224017Y9299213D01*
X47302987Y9202987D01*
X47399213Y9124017D01*
X47508996Y9065336D01*
X47628118Y9029201D01*
X47752000Y9017000D01*
X49784000Y9017000D01*
X49907882Y9029201D01*
X50027004Y9065336D01*
X50081474Y9094451D01*
X50111320Y9078498D01*
X50231018Y9042188D01*
X50355500Y9029928D01*
X52260500Y9029928D01*
X52384982Y9042188D01*
X52504680Y9078498D01*
X52614994Y9137463D01*
X52711685Y9216815D01*
X52791037Y9313506D01*
X52850002Y9423820D01*
X52886312Y9543518D01*
X52898572Y9668000D01*
X52898572Y11668000D01*
X52886312Y11792482D01*
X52850002Y11912180D01*
X52791037Y12022494D01*
X52711685Y12119185D01*
X52614994Y12198537D01*
X52504680Y12257502D01*
X52384982Y12293812D01*
X52260500Y12306072D01*
X51802140Y12306072D01*
X51841731Y12355970D01*
X51898592Y12466706D01*
X51932757Y12586408D01*
X51942914Y12710475D01*
X51928670Y12834139D01*
X51890575Y12952648D01*
X51830092Y13061448D01*
X50382094Y15153000D01*
X55018002Y15153000D01*
X55478567Y15198362D01*
X56069517Y15377624D01*
X56614140Y15668731D01*
X56664176Y15709795D01*
X56737253Y15716992D01*
X56903850Y15767529D01*
X57057386Y15849595D01*
X57191961Y15960039D01*
X57277000Y16063658D01*
X57277000Y127000D01*
X127000Y127000D01*
X127000Y17926260D01*
X1055000Y17926260D01*
X1055000Y17633740D01*
X1112068Y17346842D01*
X1224010Y17076589D01*
X1386525Y16833368D01*
X1593368Y16626525D01*
X1767760Y16510000D01*
X1593368Y16393475D01*
X1386525Y16186632D01*
X1224010Y15943411D01*
X1112068Y15673158D01*
X1055000Y15386260D01*
X1055000Y15093740D01*
X1112068Y14806842D01*
X1224010Y14536589D01*
X1386525Y14293368D01*
X1593368Y14086525D01*
X1767760Y13970000D01*
X1593368Y13853475D01*
X1386525Y13646632D01*
X1224010Y13403411D01*
X1112068Y13133158D01*
X1055000Y12846260D01*
X1055000Y12553740D01*
X1112068Y12266842D01*
X1224010Y11996589D01*
X1386525Y11753368D01*
X1593368Y11546525D01*
X1836589Y11384010D01*
X2106842Y11272068D01*
X2393740Y11215000D01*
X2686260Y11215000D01*
X2973158Y11272068D01*
X3243411Y11384010D01*
X3486632Y11546525D01*
X3693475Y11753368D01*
X3855990Y11996589D01*
X3967932Y12266842D01*
X4025000Y12553740D01*
X4025000Y12846260D01*
X3967932Y13133158D01*
X3855990Y13403411D01*
X3693475Y13646632D01*
X3486632Y13853475D01*
X3312240Y13970000D01*
X3486632Y14086525D01*
X3693475Y14293368D01*
X3855990Y14536589D01*
X3967932Y14806842D01*
X4025000Y15093740D01*
X4025000Y15386260D01*
X3967932Y15673158D01*
X3855990Y15943411D01*
X3693475Y16186632D01*
X3486632Y16393475D01*
X3312240Y16510000D01*
X3486632Y16626525D01*
X3693475Y16833368D01*
X3855990Y17076589D01*
X3967932Y17346842D01*
X4025000Y17633740D01*
X4025000Y17926260D01*
X3967932Y18213158D01*
X3855990Y18483411D01*
X3693475Y18726632D01*
X3486632Y18933475D01*
X3243411Y19095990D01*
X2973158Y19207932D01*
X2686260Y19265000D01*
X2393740Y19265000D01*
X2106842Y19207932D01*
X1836589Y19095990D01*
X1593368Y18933475D01*
X1386525Y18726632D01*
X1224010Y18483411D01*
X1112068Y18213158D01*
X1055000Y17926260D01*
X127000Y17926260D01*
X127000Y19278939D01*
X12300000Y19278939D01*
X12300000Y19075061D01*
X12339774Y18875102D01*
X12417795Y18686744D01*
X12450001Y18638545D01*
X12450000Y18077470D01*
X12445719Y18034000D01*
X12450000Y17990531D01*
X12450000Y17990524D01*
X12462805Y17860511D01*
X12513411Y17693688D01*
X12595589Y17539942D01*
X12706183Y17405183D01*
X12739956Y17377466D01*
X13440470Y16676951D01*
X13468183Y16643183D01*
X13501951Y16615470D01*
X13501953Y16615468D01*
X13535422Y16588001D01*
X13602941Y16532589D01*
X13756687Y16450411D01*
X13923510Y16399805D01*
X14053523Y16387000D01*
X14053531Y16387000D01*
X14097000Y16382719D01*
X14140469Y16387000D01*
X29097422Y16387000D01*
X33531679Y11952742D01*
X33524095Y11938554D01*
X33398235Y12041845D01*
X33294614Y12097231D01*
X33251411Y12178059D01*
X33191945Y12250518D01*
X33168532Y12279047D01*
X33168530Y12279049D01*
X33140817Y12312817D01*
X33107050Y12340529D01*
X31644534Y13803044D01*
X31616817Y13836817D01*
X31482059Y13947411D01*
X31328313Y14029589D01*
X31161490Y14080195D01*
X31031477Y14093000D01*
X31031469Y14093000D01*
X30988000Y14097281D01*
X30944531Y14093000D01*
X21887469Y14093000D01*
X21844000Y14097281D01*
X21800531Y14093000D01*
X21800523Y14093000D01*
X21685306Y14081652D01*
X21670509Y14080195D01*
X21619903Y14064843D01*
X21503687Y14029589D01*
X21349941Y13947411D01*
X21349939Y13947410D01*
X21349940Y13947410D01*
X21248953Y13864532D01*
X21248951Y13864530D01*
X21215183Y13836817D01*
X21187470Y13803049D01*
X20461422Y13077000D01*
X15791469Y13077000D01*
X15748000Y13081281D01*
X15704531Y13077000D01*
X15704523Y13077000D01*
X15574510Y13064195D01*
X15407686Y13013589D01*
X15253941Y12931411D01*
X15152953Y12848532D01*
X15152951Y12848530D01*
X15119183Y12820817D01*
X15091470Y12787049D01*
X14185951Y11881529D01*
X14152184Y11853817D01*
X14124471Y11820049D01*
X14124468Y11820046D01*
X14041590Y11719059D01*
X13959412Y11565313D01*
X13908805Y11398490D01*
X13891719Y11225000D01*
X13896001Y11181522D01*
X13896001Y10698455D01*
X13863795Y10650256D01*
X13785774Y10461898D01*
X13746000Y10261939D01*
X13746000Y10058061D01*
X13785774Y9858102D01*
X13863795Y9669744D01*
X13977063Y9500226D01*
X14121226Y9356063D01*
X14290744Y9242795D01*
X14479102Y9164774D01*
X14679061Y9125000D01*
X14882939Y9125000D01*
X15082898Y9164774D01*
X15271256Y9242795D01*
X15440774Y9356063D01*
X15584937Y9500226D01*
X15698205Y9669744D01*
X15776226Y9858102D01*
X15816000Y10058061D01*
X15816000Y10261939D01*
X15776226Y10461898D01*
X15698205Y10650256D01*
X15666000Y10698454D01*
X15666000Y10858422D01*
X16114579Y11307000D01*
X20784531Y11307000D01*
X20828000Y11302719D01*
X20871469Y11307000D01*
X20871477Y11307000D01*
X21001490Y11319805D01*
X21168313Y11370411D01*
X21322059Y11452589D01*
X21456817Y11563183D01*
X21484534Y11596956D01*
X22210579Y12323000D01*
X30621422Y12323000D01*
X31256438Y11687984D01*
X31185655Y11601735D01*
X31038245Y11325949D01*
X30947470Y11026704D01*
X30924500Y10793486D01*
X30924500Y10542515D01*
X30947470Y10309297D01*
X31038245Y10010052D01*
X31185655Y9734266D01*
X31384037Y9492537D01*
X31625765Y9294155D01*
X31901551Y9146745D01*
X32200796Y9055970D01*
X32512000Y9025319D01*
X32823203Y9055970D01*
X33122448Y9146745D01*
X33398234Y9294155D01*
X33524095Y9397447D01*
X33568963Y9313506D01*
X33648315Y9216815D01*
X33745006Y9137463D01*
X33855320Y9078498D01*
X33975018Y9042188D01*
X34099500Y9029928D01*
X36004500Y9029928D01*
X36128982Y9042188D01*
X36248680Y9078498D01*
X36358994Y9137463D01*
X36455685Y9216815D01*
X36535037Y9313506D01*
X36594002Y9423820D01*
X36630312Y9543518D01*
X36642572Y9668000D01*
X36642572Y11668000D01*
X36630312Y11792482D01*
X36594002Y11912180D01*
X36535037Y12022494D01*
X36455685Y12119185D01*
X36358994Y12198537D01*
X36248680Y12257502D01*
X36128982Y12293812D01*
X36004500Y12306072D01*
X35686353Y12306072D01*
X35680817Y12312817D01*
X35647049Y12340530D01*
X30120534Y17867044D01*
X30092817Y17900817D01*
X29958059Y18011411D01*
X29804313Y18093589D01*
X29637490Y18144195D01*
X29507477Y18157000D01*
X29507469Y18157000D01*
X29464000Y18161281D01*
X29420531Y18157000D01*
X14463579Y18157000D01*
X14220000Y18400578D01*
X14220000Y18638546D01*
X14252205Y18686744D01*
X14330226Y18875102D01*
X14370000Y19075061D01*
X14370000Y19278939D01*
X14330226Y19478898D01*
X14252205Y19667256D01*
X14138937Y19836774D01*
X13994774Y19980937D01*
X13825256Y20094205D01*
X13636898Y20172226D01*
X13436939Y20212000D01*
X13233061Y20212000D01*
X13033102Y20172226D01*
X12844744Y20094205D01*
X12675226Y19980937D01*
X12531063Y19836774D01*
X12417795Y19667256D01*
X12339774Y19478898D01*
X12300000Y19278939D01*
X127000Y19278939D01*
X127000Y24993939D01*
X16110000Y24993939D01*
X16110000Y24790061D01*
X16149774Y24590102D01*
X16227795Y24401744D01*
X16341063Y24232226D01*
X16485226Y24088063D01*
X16654744Y23974795D01*
X16843102Y23896774D01*
X16899957Y23885465D01*
X19028470Y21756951D01*
X19056183Y21723183D01*
X19089951Y21695470D01*
X19089953Y21695468D01*
X19161452Y21636790D01*
X19190941Y21612589D01*
X19344687Y21530411D01*
X19511510Y21479805D01*
X19641523Y21467000D01*
X19641533Y21467000D01*
X19684999Y21462719D01*
X19728465Y21467000D01*
X33161422Y21467000D01*
X39633465Y14994956D01*
X39644774Y14938102D01*
X39722795Y14749744D01*
X39836063Y14580226D01*
X39980226Y14436063D01*
X40149744Y14322795D01*
X40338102Y14244774D01*
X40538061Y14205000D01*
X40741939Y14205000D01*
X40941898Y14244774D01*
X41130256Y14322795D01*
X41299774Y14436063D01*
X41443937Y14580226D01*
X41557205Y14749744D01*
X41635226Y14938102D01*
X41675000Y15138061D01*
X41675000Y15341939D01*
X41635226Y15541898D01*
X41557205Y15730256D01*
X41443937Y15899774D01*
X41299774Y16043937D01*
X41130256Y16157205D01*
X40941898Y16235226D01*
X40885044Y16246535D01*
X34184534Y22947044D01*
X34156817Y22980817D01*
X34022059Y23091411D01*
X33868313Y23173589D01*
X33701490Y23224195D01*
X33571477Y23237000D01*
X33571469Y23237000D01*
X33528000Y23241281D01*
X33484531Y23237000D01*
X20051579Y23237000D01*
X18151535Y25137043D01*
X18140226Y25193898D01*
X18062205Y25382256D01*
X17948937Y25551774D01*
X17804774Y25695937D01*
X17635256Y25809205D01*
X17446898Y25887226D01*
X17422898Y25892000D01*
X30365928Y25892000D01*
X30365928Y23892000D01*
X30378188Y23767518D01*
X30414498Y23647820D01*
X30473463Y23537506D01*
X30552815Y23440815D01*
X30649506Y23361463D01*
X30759820Y23302498D01*
X30879518Y23266188D01*
X31004000Y23253928D01*
X33004000Y23253928D01*
X33128482Y23266188D01*
X33248180Y23302498D01*
X33358494Y23361463D01*
X33455185Y23440815D01*
X33534537Y23537506D01*
X33593502Y23647820D01*
X33629812Y23767518D01*
X33642072Y23892000D01*
X33642072Y25892000D01*
X33629812Y26016482D01*
X33593502Y26136180D01*
X33534537Y26246494D01*
X33455185Y26343185D01*
X33358494Y26422537D01*
X33248180Y26481502D01*
X33128482Y26517812D01*
X33004000Y26530072D01*
X31004000Y26530072D01*
X30879518Y26517812D01*
X30759820Y26481502D01*
X30649506Y26422537D01*
X30552815Y26343185D01*
X30473463Y26246494D01*
X30414498Y26136180D01*
X30378188Y26016482D01*
X30365928Y25892000D01*
X17422898Y25892000D01*
X17246939Y25927000D01*
X17043061Y25927000D01*
X16843102Y25887226D01*
X16654744Y25809205D01*
X16485226Y25695937D01*
X16341063Y25551774D01*
X16227795Y25382256D01*
X16149774Y25193898D01*
X16110000Y24993939D01*
X127000Y24993939D01*
X127000Y37259999D01*
X459928Y37259999D01*
X459928Y33860001D01*
X476992Y33686747D01*
X527529Y33520150D01*
X609595Y33366614D01*
X720039Y33232039D01*
X854614Y33121595D01*
X1008150Y33039529D01*
X1174747Y32988992D01*
X1348001Y32971928D01*
X4747999Y32971928D01*
X4921253Y32988992D01*
X5087850Y33039529D01*
X5241386Y33121595D01*
X5375961Y33232039D01*
X5486405Y33366614D01*
X5568471Y33520150D01*
X5619008Y33686747D01*
X5636072Y33860001D01*
X5636072Y37259999D01*
X5619008Y37433253D01*
X5568471Y37599850D01*
X5486405Y37753386D01*
X5375961Y37887961D01*
X5241386Y37998405D01*
X5087850Y38080471D01*
X4921253Y38131008D01*
X4747999Y38148072D01*
X1348001Y38148072D01*
X1174747Y38131008D01*
X1008150Y38080471D01*
X854614Y37998405D01*
X720039Y37887961D01*
X609595Y37753386D01*
X527529Y37599850D01*
X476992Y37433253D01*
X459928Y37259999D01*
X127000Y37259999D01*
X127000Y45085000D01*
X57277000Y45085000D01*
X57277000Y27017434D01*
%TA.AperFunction,Conductor*%
D21*
G36*
X57277000Y27017434D02*
G01*
X57154798Y27312457D01*
X56871901Y27735842D01*
X56511842Y28095901D01*
X56088457Y28378798D01*
X55618017Y28573660D01*
X55118600Y28673000D01*
X54609400Y28673000D01*
X54109983Y28573660D01*
X53639543Y28378798D01*
X53216158Y28095901D01*
X52856099Y27735842D01*
X52573202Y27312457D01*
X52378340Y26842017D01*
X52279000Y26342600D01*
X52279000Y25833400D01*
X52378340Y25333983D01*
X52573202Y24863543D01*
X52856099Y24440158D01*
X53216158Y24080099D01*
X53639543Y23797202D01*
X54109983Y23602340D01*
X54609400Y23503000D01*
X55118600Y23503000D01*
X55618017Y23602340D01*
X56088457Y23797202D01*
X56511842Y24080099D01*
X56871901Y24440158D01*
X57154798Y24863543D01*
X57277000Y25158566D01*
X57277000Y20512342D01*
X57191961Y20615961D01*
X57057386Y20726405D01*
X56903850Y20808471D01*
X56737253Y20859008D01*
X56664176Y20866205D01*
X56614140Y20907269D01*
X56069517Y21198376D01*
X55478567Y21377638D01*
X55018002Y21423000D01*
X46041325Y21423000D01*
X38114092Y32873448D01*
X38040543Y32961482D01*
X37944235Y33040352D01*
X36703000Y33867842D01*
X36703000Y35544000D01*
X44637428Y35544000D01*
X44637428Y33544000D01*
X44649688Y33419518D01*
X44685998Y33299820D01*
X44744963Y33189506D01*
X44824315Y33092815D01*
X44921006Y33013463D01*
X45031320Y32954498D01*
X45151018Y32918188D01*
X45275500Y32905928D01*
X47180500Y32905928D01*
X47304982Y32918188D01*
X47424680Y32954498D01*
X47534994Y33013463D01*
X47631685Y33092815D01*
X47711037Y33189506D01*
X47755905Y33273447D01*
X47881766Y33170155D01*
X48157552Y33022745D01*
X48456797Y32931970D01*
X48768000Y32901319D01*
X49079204Y32931970D01*
X49378449Y33022745D01*
X49654235Y33170155D01*
X49895963Y33368537D01*
X50038000Y33541609D01*
X50180037Y33368537D01*
X50421766Y33170155D01*
X50697552Y33022745D01*
X50996797Y32931970D01*
X51308000Y32901319D01*
X51619204Y32931970D01*
X51918449Y33022745D01*
X52194235Y33170155D01*
X52435963Y33368537D01*
X52634345Y33610266D01*
X52781755Y33886052D01*
X52872530Y34185297D01*
X52895500Y34418515D01*
X52895500Y34669486D01*
X52872530Y34902704D01*
X52781755Y35201949D01*
X52634345Y35477735D01*
X52435963Y35719463D01*
X52194234Y35917845D01*
X51918448Y36065255D01*
X51619203Y36156030D01*
X51308000Y36186681D01*
X50996796Y36156030D01*
X50697551Y36065255D01*
X50421765Y35917845D01*
X50180037Y35719463D01*
X50038000Y35546391D01*
X49895963Y35719463D01*
X49654234Y35917845D01*
X49378448Y36065255D01*
X49079203Y36156030D01*
X48768000Y36186681D01*
X48456796Y36156030D01*
X48157551Y36065255D01*
X47881765Y35917845D01*
X47755905Y35814554D01*
X47711037Y35898494D01*
X47631685Y35995185D01*
X47534994Y36074537D01*
X47424680Y36133502D01*
X47304982Y36169812D01*
X47180500Y36182072D01*
X45275500Y36182072D01*
X45151018Y36169812D01*
X45031320Y36133502D01*
X44921006Y36074537D01*
X44824315Y35995185D01*
X44744963Y35898494D01*
X44685998Y35788180D01*
X44649688Y35668482D01*
X44637428Y35544000D01*
X36703000Y35544000D01*
X36703000Y35560000D01*
X36690799Y35683882D01*
X36654664Y35803004D01*
X36595983Y35912787D01*
X36517013Y36009013D01*
X36420787Y36087983D01*
X36311004Y36146664D01*
X36191882Y36182799D01*
X36068000Y36195000D01*
X34036000Y36195000D01*
X33912118Y36182799D01*
X33792996Y36146664D01*
X33683213Y36087983D01*
X33586987Y36009013D01*
X33508017Y35912787D01*
X33476422Y35853678D01*
X33398234Y35917845D01*
X33122448Y36065255D01*
X32823203Y36156030D01*
X32512000Y36186681D01*
X32200796Y36156030D01*
X31901551Y36065255D01*
X31625765Y35917845D01*
X31499905Y35814554D01*
X31455037Y35898494D01*
X31375685Y35995185D01*
X31278994Y36074537D01*
X31168680Y36133502D01*
X31048982Y36169812D01*
X30924500Y36182072D01*
X29019500Y36182072D01*
X28895018Y36169812D01*
X28775320Y36133502D01*
X28665006Y36074537D01*
X28568315Y35995185D01*
X28488963Y35898494D01*
X28429998Y35788180D01*
X28393688Y35668482D01*
X28381428Y35544000D01*
X28381428Y33544000D01*
X28393688Y33419518D01*
X28429998Y33299820D01*
X28488963Y33189506D01*
X28568315Y33092815D01*
X28665006Y33013463D01*
X28775320Y32954498D01*
X28895018Y32918188D01*
X29019500Y32905928D01*
X30924500Y32905928D01*
X31048982Y32918188D01*
X31168680Y32954498D01*
X31278994Y33013463D01*
X31375685Y33092815D01*
X31455037Y33189506D01*
X31499905Y33273447D01*
X31625766Y33170155D01*
X31901552Y33022745D01*
X32075393Y32970011D01*
X32055642Y32953545D01*
X31978269Y32856030D01*
X31921408Y32745294D01*
X31887243Y32625592D01*
X31877086Y32501525D01*
X31891330Y32377861D01*
X31929425Y32259352D01*
X31989908Y32150552D01*
X32182059Y31873000D01*
X26274579Y31873000D01*
X22500534Y35647044D01*
X22472817Y35680817D01*
X22338059Y35791411D01*
X22184313Y35873589D01*
X22017490Y35924195D01*
X21887477Y35937000D01*
X21887469Y35937000D01*
X21844000Y35941281D01*
X21800531Y35937000D01*
X16286454Y35937000D01*
X16238256Y35969205D01*
X16049898Y36047226D01*
X15849939Y36087000D01*
X15646061Y36087000D01*
X15446102Y36047226D01*
X15257744Y35969205D01*
X15088226Y35855937D01*
X14944063Y35711774D01*
X14830795Y35542256D01*
X14752774Y35353898D01*
X14713000Y35153939D01*
X14713000Y34950061D01*
X14752774Y34750102D01*
X14830795Y34561744D01*
X14944063Y34392226D01*
X15088226Y34248063D01*
X15257744Y34134795D01*
X15446102Y34056774D01*
X15646061Y34017000D01*
X15849939Y34017000D01*
X16049898Y34056774D01*
X16238256Y34134795D01*
X16286454Y34167000D01*
X21477422Y34167000D01*
X25251470Y30392951D01*
X25279183Y30359183D01*
X25312951Y30331470D01*
X25312953Y30331468D01*
X25413940Y30248590D01*
X25413941Y30248589D01*
X25567687Y30166411D01*
X25683903Y30131157D01*
X25734509Y30115805D01*
X25749306Y30114348D01*
X25864523Y30103000D01*
X25864531Y30103000D01*
X25908000Y30098719D01*
X25951469Y30103000D01*
X33407444Y30103000D01*
X42208019Y17391058D01*
X42301624Y17082483D01*
X42592731Y16537860D01*
X42984495Y16060495D01*
X43319536Y15785533D01*
X45705908Y12338552D01*
X45779457Y12250518D01*
X45875765Y12171648D01*
X47117000Y11344158D01*
X47117000Y9652000D01*
X47129201Y9528118D01*
X47165336Y9408996D01*
X47224017Y9299213D01*
X47302987Y9202987D01*
X47399213Y9124017D01*
X47508996Y9065336D01*
X47628118Y9029201D01*
X47752000Y9017000D01*
X49784000Y9017000D01*
X49907882Y9029201D01*
X50027004Y9065336D01*
X50081474Y9094451D01*
X50111320Y9078498D01*
X50231018Y9042188D01*
X50355500Y9029928D01*
X52260500Y9029928D01*
X52384982Y9042188D01*
X52504680Y9078498D01*
X52614994Y9137463D01*
X52711685Y9216815D01*
X52791037Y9313506D01*
X52850002Y9423820D01*
X52886312Y9543518D01*
X52898572Y9668000D01*
X52898572Y11668000D01*
X52886312Y11792482D01*
X52850002Y11912180D01*
X52791037Y12022494D01*
X52711685Y12119185D01*
X52614994Y12198537D01*
X52504680Y12257502D01*
X52384982Y12293812D01*
X52260500Y12306072D01*
X51802140Y12306072D01*
X51841731Y12355970D01*
X51898592Y12466706D01*
X51932757Y12586408D01*
X51942914Y12710475D01*
X51928670Y12834139D01*
X51890575Y12952648D01*
X51830092Y13061448D01*
X50382094Y15153000D01*
X55018002Y15153000D01*
X55478567Y15198362D01*
X56069517Y15377624D01*
X56614140Y15668731D01*
X56664176Y15709795D01*
X56737253Y15716992D01*
X56903850Y15767529D01*
X57057386Y15849595D01*
X57191961Y15960039D01*
X57277000Y16063658D01*
X57277000Y127000D01*
X127000Y127000D01*
X127000Y17926260D01*
X1055000Y17926260D01*
X1055000Y17633740D01*
X1112068Y17346842D01*
X1224010Y17076589D01*
X1386525Y16833368D01*
X1593368Y16626525D01*
X1767760Y16510000D01*
X1593368Y16393475D01*
X1386525Y16186632D01*
X1224010Y15943411D01*
X1112068Y15673158D01*
X1055000Y15386260D01*
X1055000Y15093740D01*
X1112068Y14806842D01*
X1224010Y14536589D01*
X1386525Y14293368D01*
X1593368Y14086525D01*
X1767760Y13970000D01*
X1593368Y13853475D01*
X1386525Y13646632D01*
X1224010Y13403411D01*
X1112068Y13133158D01*
X1055000Y12846260D01*
X1055000Y12553740D01*
X1112068Y12266842D01*
X1224010Y11996589D01*
X1386525Y11753368D01*
X1593368Y11546525D01*
X1836589Y11384010D01*
X2106842Y11272068D01*
X2393740Y11215000D01*
X2686260Y11215000D01*
X2973158Y11272068D01*
X3243411Y11384010D01*
X3486632Y11546525D01*
X3693475Y11753368D01*
X3855990Y11996589D01*
X3967932Y12266842D01*
X4025000Y12553740D01*
X4025000Y12846260D01*
X3967932Y13133158D01*
X3855990Y13403411D01*
X3693475Y13646632D01*
X3486632Y13853475D01*
X3312240Y13970000D01*
X3486632Y14086525D01*
X3693475Y14293368D01*
X3855990Y14536589D01*
X3967932Y14806842D01*
X4025000Y15093740D01*
X4025000Y15386260D01*
X3967932Y15673158D01*
X3855990Y15943411D01*
X3693475Y16186632D01*
X3486632Y16393475D01*
X3312240Y16510000D01*
X3486632Y16626525D01*
X3693475Y16833368D01*
X3855990Y17076589D01*
X3967932Y17346842D01*
X4025000Y17633740D01*
X4025000Y17926260D01*
X3967932Y18213158D01*
X3855990Y18483411D01*
X3693475Y18726632D01*
X3486632Y18933475D01*
X3243411Y19095990D01*
X2973158Y19207932D01*
X2686260Y19265000D01*
X2393740Y19265000D01*
X2106842Y19207932D01*
X1836589Y19095990D01*
X1593368Y18933475D01*
X1386525Y18726632D01*
X1224010Y18483411D01*
X1112068Y18213158D01*
X1055000Y17926260D01*
X127000Y17926260D01*
X127000Y19278939D01*
X12300000Y19278939D01*
X12300000Y19075061D01*
X12339774Y18875102D01*
X12417795Y18686744D01*
X12450001Y18638545D01*
X12450000Y18077470D01*
X12445719Y18034000D01*
X12450000Y17990531D01*
X12450000Y17990524D01*
X12462805Y17860511D01*
X12513411Y17693688D01*
X12595589Y17539942D01*
X12706183Y17405183D01*
X12739956Y17377466D01*
X13440470Y16676951D01*
X13468183Y16643183D01*
X13501951Y16615470D01*
X13501953Y16615468D01*
X13535422Y16588001D01*
X13602941Y16532589D01*
X13756687Y16450411D01*
X13923510Y16399805D01*
X14053523Y16387000D01*
X14053531Y16387000D01*
X14097000Y16382719D01*
X14140469Y16387000D01*
X29097422Y16387000D01*
X33531679Y11952742D01*
X33524095Y11938554D01*
X33398235Y12041845D01*
X33294614Y12097231D01*
X33251411Y12178059D01*
X33191945Y12250518D01*
X33168532Y12279047D01*
X33168530Y12279049D01*
X33140817Y12312817D01*
X33107050Y12340529D01*
X31644534Y13803044D01*
X31616817Y13836817D01*
X31482059Y13947411D01*
X31328313Y14029589D01*
X31161490Y14080195D01*
X31031477Y14093000D01*
X31031469Y14093000D01*
X30988000Y14097281D01*
X30944531Y14093000D01*
X21887469Y14093000D01*
X21844000Y14097281D01*
X21800531Y14093000D01*
X21800523Y14093000D01*
X21685306Y14081652D01*
X21670509Y14080195D01*
X21619903Y14064843D01*
X21503687Y14029589D01*
X21349941Y13947411D01*
X21349939Y13947410D01*
X21349940Y13947410D01*
X21248953Y13864532D01*
X21248951Y13864530D01*
X21215183Y13836817D01*
X21187470Y13803049D01*
X20461422Y13077000D01*
X15791469Y13077000D01*
X15748000Y13081281D01*
X15704531Y13077000D01*
X15704523Y13077000D01*
X15574510Y13064195D01*
X15407686Y13013589D01*
X15253941Y12931411D01*
X15152953Y12848532D01*
X15152951Y12848530D01*
X15119183Y12820817D01*
X15091470Y12787049D01*
X14185951Y11881529D01*
X14152184Y11853817D01*
X14124471Y11820049D01*
X14124468Y11820046D01*
X14041590Y11719059D01*
X13959412Y11565313D01*
X13908805Y11398490D01*
X13891719Y11225000D01*
X13896001Y11181522D01*
X13896001Y10698455D01*
X13863795Y10650256D01*
X13785774Y10461898D01*
X13746000Y10261939D01*
X13746000Y10058061D01*
X13785774Y9858102D01*
X13863795Y9669744D01*
X13977063Y9500226D01*
X14121226Y9356063D01*
X14290744Y9242795D01*
X14479102Y9164774D01*
X14679061Y9125000D01*
X14882939Y9125000D01*
X15082898Y9164774D01*
X15271256Y9242795D01*
X15440774Y9356063D01*
X15584937Y9500226D01*
X15698205Y9669744D01*
X15776226Y9858102D01*
X15816000Y10058061D01*
X15816000Y10261939D01*
X15776226Y10461898D01*
X15698205Y10650256D01*
X15666000Y10698454D01*
X15666000Y10858422D01*
X16114579Y11307000D01*
X20784531Y11307000D01*
X20828000Y11302719D01*
X20871469Y11307000D01*
X20871477Y11307000D01*
X21001490Y11319805D01*
X21168313Y11370411D01*
X21322059Y11452589D01*
X21456817Y11563183D01*
X21484534Y11596956D01*
X22210579Y12323000D01*
X30621422Y12323000D01*
X31256438Y11687984D01*
X31185655Y11601735D01*
X31038245Y11325949D01*
X30947470Y11026704D01*
X30924500Y10793486D01*
X30924500Y10542515D01*
X30947470Y10309297D01*
X31038245Y10010052D01*
X31185655Y9734266D01*
X31384037Y9492537D01*
X31625765Y9294155D01*
X31901551Y9146745D01*
X32200796Y9055970D01*
X32512000Y9025319D01*
X32823203Y9055970D01*
X33122448Y9146745D01*
X33398234Y9294155D01*
X33524095Y9397447D01*
X33568963Y9313506D01*
X33648315Y9216815D01*
X33745006Y9137463D01*
X33855320Y9078498D01*
X33975018Y9042188D01*
X34099500Y9029928D01*
X36004500Y9029928D01*
X36128982Y9042188D01*
X36248680Y9078498D01*
X36358994Y9137463D01*
X36455685Y9216815D01*
X36535037Y9313506D01*
X36594002Y9423820D01*
X36630312Y9543518D01*
X36642572Y9668000D01*
X36642572Y11668000D01*
X36630312Y11792482D01*
X36594002Y11912180D01*
X36535037Y12022494D01*
X36455685Y12119185D01*
X36358994Y12198537D01*
X36248680Y12257502D01*
X36128982Y12293812D01*
X36004500Y12306072D01*
X35686353Y12306072D01*
X35680817Y12312817D01*
X35647049Y12340530D01*
X30120534Y17867044D01*
X30092817Y17900817D01*
X29958059Y18011411D01*
X29804313Y18093589D01*
X29637490Y18144195D01*
X29507477Y18157000D01*
X29507469Y18157000D01*
X29464000Y18161281D01*
X29420531Y18157000D01*
X14463579Y18157000D01*
X14220000Y18400578D01*
X14220000Y18638546D01*
X14252205Y18686744D01*
X14330226Y18875102D01*
X14370000Y19075061D01*
X14370000Y19278939D01*
X14330226Y19478898D01*
X14252205Y19667256D01*
X14138937Y19836774D01*
X13994774Y19980937D01*
X13825256Y20094205D01*
X13636898Y20172226D01*
X13436939Y20212000D01*
X13233061Y20212000D01*
X13033102Y20172226D01*
X12844744Y20094205D01*
X12675226Y19980937D01*
X12531063Y19836774D01*
X12417795Y19667256D01*
X12339774Y19478898D01*
X12300000Y19278939D01*
X127000Y19278939D01*
X127000Y24993939D01*
X16110000Y24993939D01*
X16110000Y24790061D01*
X16149774Y24590102D01*
X16227795Y24401744D01*
X16341063Y24232226D01*
X16485226Y24088063D01*
X16654744Y23974795D01*
X16843102Y23896774D01*
X16899957Y23885465D01*
X19028470Y21756951D01*
X19056183Y21723183D01*
X19089951Y21695470D01*
X19089953Y21695468D01*
X19161452Y21636790D01*
X19190941Y21612589D01*
X19344687Y21530411D01*
X19511510Y21479805D01*
X19641523Y21467000D01*
X19641533Y21467000D01*
X19684999Y21462719D01*
X19728465Y21467000D01*
X33161422Y21467000D01*
X39633465Y14994956D01*
X39644774Y14938102D01*
X39722795Y14749744D01*
X39836063Y14580226D01*
X39980226Y14436063D01*
X40149744Y14322795D01*
X40338102Y14244774D01*
X40538061Y14205000D01*
X40741939Y14205000D01*
X40941898Y14244774D01*
X41130256Y14322795D01*
X41299774Y14436063D01*
X41443937Y14580226D01*
X41557205Y14749744D01*
X41635226Y14938102D01*
X41675000Y15138061D01*
X41675000Y15341939D01*
X41635226Y15541898D01*
X41557205Y15730256D01*
X41443937Y15899774D01*
X41299774Y16043937D01*
X41130256Y16157205D01*
X40941898Y16235226D01*
X40885044Y16246535D01*
X34184534Y22947044D01*
X34156817Y22980817D01*
X34022059Y23091411D01*
X33868313Y23173589D01*
X33701490Y23224195D01*
X33571477Y23237000D01*
X33571469Y23237000D01*
X33528000Y23241281D01*
X33484531Y23237000D01*
X20051579Y23237000D01*
X18151535Y25137043D01*
X18140226Y25193898D01*
X18062205Y25382256D01*
X17948937Y25551774D01*
X17804774Y25695937D01*
X17635256Y25809205D01*
X17446898Y25887226D01*
X17422898Y25892000D01*
X30365928Y25892000D01*
X30365928Y23892000D01*
X30378188Y23767518D01*
X30414498Y23647820D01*
X30473463Y23537506D01*
X30552815Y23440815D01*
X30649506Y23361463D01*
X30759820Y23302498D01*
X30879518Y23266188D01*
X31004000Y23253928D01*
X33004000Y23253928D01*
X33128482Y23266188D01*
X33248180Y23302498D01*
X33358494Y23361463D01*
X33455185Y23440815D01*
X33534537Y23537506D01*
X33593502Y23647820D01*
X33629812Y23767518D01*
X33642072Y23892000D01*
X33642072Y25892000D01*
X33629812Y26016482D01*
X33593502Y26136180D01*
X33534537Y26246494D01*
X33455185Y26343185D01*
X33358494Y26422537D01*
X33248180Y26481502D01*
X33128482Y26517812D01*
X33004000Y26530072D01*
X31004000Y26530072D01*
X30879518Y26517812D01*
X30759820Y26481502D01*
X30649506Y26422537D01*
X30552815Y26343185D01*
X30473463Y26246494D01*
X30414498Y26136180D01*
X30378188Y26016482D01*
X30365928Y25892000D01*
X17422898Y25892000D01*
X17246939Y25927000D01*
X17043061Y25927000D01*
X16843102Y25887226D01*
X16654744Y25809205D01*
X16485226Y25695937D01*
X16341063Y25551774D01*
X16227795Y25382256D01*
X16149774Y25193898D01*
X16110000Y24993939D01*
X127000Y24993939D01*
X127000Y37259999D01*
X459928Y37259999D01*
X459928Y33860001D01*
X476992Y33686747D01*
X527529Y33520150D01*
X609595Y33366614D01*
X720039Y33232039D01*
X854614Y33121595D01*
X1008150Y33039529D01*
X1174747Y32988992D01*
X1348001Y32971928D01*
X4747999Y32971928D01*
X4921253Y32988992D01*
X5087850Y33039529D01*
X5241386Y33121595D01*
X5375961Y33232039D01*
X5486405Y33366614D01*
X5568471Y33520150D01*
X5619008Y33686747D01*
X5636072Y33860001D01*
X5636072Y37259999D01*
X5619008Y37433253D01*
X5568471Y37599850D01*
X5486405Y37753386D01*
X5375961Y37887961D01*
X5241386Y37998405D01*
X5087850Y38080471D01*
X4921253Y38131008D01*
X4747999Y38148072D01*
X1348001Y38148072D01*
X1174747Y38131008D01*
X1008150Y38080471D01*
X854614Y37998405D01*
X720039Y37887961D01*
X609595Y37753386D01*
X527529Y37599850D01*
X476992Y37433253D01*
X459928Y37259999D01*
X127000Y37259999D01*
X127000Y45085000D01*
X57277000Y45085000D01*
X57277000Y27017434D01*
G37*
%TD.AperFunction*%
%TD*%
M02*
