%TF.GenerationSoftware,KiCad,Pcbnew,(5.1.7)-1*%
%TF.CreationDate,2020-11-11T23:56:32-08:00*%
%TF.ProjectId,H-Bridge,482d4272-6964-4676-952e-6b696361645f,rev?*%
%TF.SameCoordinates,PXac78580PY6fe96a0*%
%TF.FileFunction,Soldermask,Top*%
%TF.FilePolarity,Negative*%
%FSLAX46Y46*%
G04 Gerber Fmt 4.6, Leading zero omitted, Abs format (unit mm)*
G04 Created by KiCad (PCBNEW (5.1.7)-1) date 2020-11-11 23:56:32*
%MOMM*%
%LPD*%
G01*
G04 APERTURE LIST*
%ADD10O,1.700000X1.700000*%
%ADD11R,1.700000X1.700000*%
%ADD12R,1.200000X0.900000*%
%ADD13O,1.905000X2.000000*%
%ADD14R,1.905000X2.000000*%
%ADD15C,3.900000*%
%ADD16R,0.450000X0.600000*%
%ADD17C,2.000000*%
%ADD18R,2.000000X2.000000*%
G04 APERTURE END LIST*
D10*
%TO.C,J1*%
X2540000Y12700000D03*
X2540000Y15240000D03*
X2540000Y17780000D03*
D11*
X2540000Y20320000D03*
%TD*%
D12*
%TO.C,D2*%
X20828000Y18922000D03*
X20828000Y15622000D03*
%TD*%
%TO.C,D1*%
X9652000Y26290000D03*
X9652000Y29590000D03*
%TD*%
%TO.C,U2*%
G36*
G01*
X16995000Y15772000D02*
X17295000Y15772000D01*
G75*
G02*
X17445000Y15622000I0J-150000D01*
G01*
X17445000Y13972000D01*
G75*
G02*
X17295000Y13822000I-150000J0D01*
G01*
X16995000Y13822000D01*
G75*
G02*
X16845000Y13972000I0J150000D01*
G01*
X16845000Y15622000D01*
G75*
G02*
X16995000Y15772000I150000J0D01*
G01*
G37*
G36*
G01*
X15725000Y15772000D02*
X16025000Y15772000D01*
G75*
G02*
X16175000Y15622000I0J-150000D01*
G01*
X16175000Y13972000D01*
G75*
G02*
X16025000Y13822000I-150000J0D01*
G01*
X15725000Y13822000D01*
G75*
G02*
X15575000Y13972000I0J150000D01*
G01*
X15575000Y15622000D01*
G75*
G02*
X15725000Y15772000I150000J0D01*
G01*
G37*
G36*
G01*
X14455000Y15772000D02*
X14755000Y15772000D01*
G75*
G02*
X14905000Y15622000I0J-150000D01*
G01*
X14905000Y13972000D01*
G75*
G02*
X14755000Y13822000I-150000J0D01*
G01*
X14455000Y13822000D01*
G75*
G02*
X14305000Y13972000I0J150000D01*
G01*
X14305000Y15622000D01*
G75*
G02*
X14455000Y15772000I150000J0D01*
G01*
G37*
G36*
G01*
X13185000Y15772000D02*
X13485000Y15772000D01*
G75*
G02*
X13635000Y15622000I0J-150000D01*
G01*
X13635000Y13972000D01*
G75*
G02*
X13485000Y13822000I-150000J0D01*
G01*
X13185000Y13822000D01*
G75*
G02*
X13035000Y13972000I0J150000D01*
G01*
X13035000Y15622000D01*
G75*
G02*
X13185000Y15772000I150000J0D01*
G01*
G37*
G36*
G01*
X13185000Y20722000D02*
X13485000Y20722000D01*
G75*
G02*
X13635000Y20572000I0J-150000D01*
G01*
X13635000Y18922000D01*
G75*
G02*
X13485000Y18772000I-150000J0D01*
G01*
X13185000Y18772000D01*
G75*
G02*
X13035000Y18922000I0J150000D01*
G01*
X13035000Y20572000D01*
G75*
G02*
X13185000Y20722000I150000J0D01*
G01*
G37*
G36*
G01*
X14455000Y20722000D02*
X14755000Y20722000D01*
G75*
G02*
X14905000Y20572000I0J-150000D01*
G01*
X14905000Y18922000D01*
G75*
G02*
X14755000Y18772000I-150000J0D01*
G01*
X14455000Y18772000D01*
G75*
G02*
X14305000Y18922000I0J150000D01*
G01*
X14305000Y20572000D01*
G75*
G02*
X14455000Y20722000I150000J0D01*
G01*
G37*
G36*
G01*
X15725000Y20722000D02*
X16025000Y20722000D01*
G75*
G02*
X16175000Y20572000I0J-150000D01*
G01*
X16175000Y18922000D01*
G75*
G02*
X16025000Y18772000I-150000J0D01*
G01*
X15725000Y18772000D01*
G75*
G02*
X15575000Y18922000I0J150000D01*
G01*
X15575000Y20572000D01*
G75*
G02*
X15725000Y20722000I150000J0D01*
G01*
G37*
G36*
G01*
X16995000Y20722000D02*
X17295000Y20722000D01*
G75*
G02*
X17445000Y20572000I0J-150000D01*
G01*
X17445000Y18922000D01*
G75*
G02*
X17295000Y18772000I-150000J0D01*
G01*
X16995000Y18772000D01*
G75*
G02*
X16845000Y18922000I0J150000D01*
G01*
X16845000Y20572000D01*
G75*
G02*
X16995000Y20722000I150000J0D01*
G01*
G37*
%TD*%
%TO.C,U1*%
G36*
G01*
X13485000Y29440000D02*
X13185000Y29440000D01*
G75*
G02*
X13035000Y29590000I0J150000D01*
G01*
X13035000Y31240000D01*
G75*
G02*
X13185000Y31390000I150000J0D01*
G01*
X13485000Y31390000D01*
G75*
G02*
X13635000Y31240000I0J-150000D01*
G01*
X13635000Y29590000D01*
G75*
G02*
X13485000Y29440000I-150000J0D01*
G01*
G37*
G36*
G01*
X14755000Y29440000D02*
X14455000Y29440000D01*
G75*
G02*
X14305000Y29590000I0J150000D01*
G01*
X14305000Y31240000D01*
G75*
G02*
X14455000Y31390000I150000J0D01*
G01*
X14755000Y31390000D01*
G75*
G02*
X14905000Y31240000I0J-150000D01*
G01*
X14905000Y29590000D01*
G75*
G02*
X14755000Y29440000I-150000J0D01*
G01*
G37*
G36*
G01*
X16025000Y29440000D02*
X15725000Y29440000D01*
G75*
G02*
X15575000Y29590000I0J150000D01*
G01*
X15575000Y31240000D01*
G75*
G02*
X15725000Y31390000I150000J0D01*
G01*
X16025000Y31390000D01*
G75*
G02*
X16175000Y31240000I0J-150000D01*
G01*
X16175000Y29590000D01*
G75*
G02*
X16025000Y29440000I-150000J0D01*
G01*
G37*
G36*
G01*
X17295000Y29440000D02*
X16995000Y29440000D01*
G75*
G02*
X16845000Y29590000I0J150000D01*
G01*
X16845000Y31240000D01*
G75*
G02*
X16995000Y31390000I150000J0D01*
G01*
X17295000Y31390000D01*
G75*
G02*
X17445000Y31240000I0J-150000D01*
G01*
X17445000Y29590000D01*
G75*
G02*
X17295000Y29440000I-150000J0D01*
G01*
G37*
G36*
G01*
X17295000Y24490000D02*
X16995000Y24490000D01*
G75*
G02*
X16845000Y24640000I0J150000D01*
G01*
X16845000Y26290000D01*
G75*
G02*
X16995000Y26440000I150000J0D01*
G01*
X17295000Y26440000D01*
G75*
G02*
X17445000Y26290000I0J-150000D01*
G01*
X17445000Y24640000D01*
G75*
G02*
X17295000Y24490000I-150000J0D01*
G01*
G37*
G36*
G01*
X16025000Y24490000D02*
X15725000Y24490000D01*
G75*
G02*
X15575000Y24640000I0J150000D01*
G01*
X15575000Y26290000D01*
G75*
G02*
X15725000Y26440000I150000J0D01*
G01*
X16025000Y26440000D01*
G75*
G02*
X16175000Y26290000I0J-150000D01*
G01*
X16175000Y24640000D01*
G75*
G02*
X16025000Y24490000I-150000J0D01*
G01*
G37*
G36*
G01*
X14755000Y24490000D02*
X14455000Y24490000D01*
G75*
G02*
X14305000Y24640000I0J150000D01*
G01*
X14305000Y26290000D01*
G75*
G02*
X14455000Y26440000I150000J0D01*
G01*
X14755000Y26440000D01*
G75*
G02*
X14905000Y26290000I0J-150000D01*
G01*
X14905000Y24640000D01*
G75*
G02*
X14755000Y24490000I-150000J0D01*
G01*
G37*
G36*
G01*
X13485000Y24490000D02*
X13185000Y24490000D01*
G75*
G02*
X13035000Y24640000I0J150000D01*
G01*
X13035000Y26290000D01*
G75*
G02*
X13185000Y26440000I150000J0D01*
G01*
X13485000Y26440000D01*
G75*
G02*
X13635000Y26290000I0J-150000D01*
G01*
X13635000Y24640000D01*
G75*
G02*
X13485000Y24490000I-150000J0D01*
G01*
G37*
%TD*%
%TO.C,R1*%
G36*
G01*
X48650997Y21390500D02*
X49901003Y21390500D01*
G75*
G02*
X50151000Y21140503I0J-249997D01*
G01*
X50151000Y20515497D01*
G75*
G02*
X49901003Y20265500I-249997J0D01*
G01*
X48650997Y20265500D01*
G75*
G02*
X48401000Y20515497I0J249997D01*
G01*
X48401000Y21140503D01*
G75*
G02*
X48650997Y21390500I249997J0D01*
G01*
G37*
G36*
G01*
X48650997Y24315500D02*
X49901003Y24315500D01*
G75*
G02*
X50151000Y24065503I0J-249997D01*
G01*
X50151000Y23440497D01*
G75*
G02*
X49901003Y23190500I-249997J0D01*
G01*
X48650997Y23190500D01*
G75*
G02*
X48401000Y23440497I0J249997D01*
G01*
X48401000Y24065503D01*
G75*
G02*
X48650997Y24315500I249997J0D01*
G01*
G37*
%TD*%
D13*
%TO.C,Q4*%
X29972000Y10668000D03*
X32512000Y10668000D03*
D14*
X35052000Y10668000D03*
%TD*%
D13*
%TO.C,Q3*%
X51308000Y34544000D03*
X48768000Y34544000D03*
D14*
X46228000Y34544000D03*
%TD*%
D13*
%TO.C,Q2*%
X46228000Y10668000D03*
X48768000Y10668000D03*
D14*
X51308000Y10668000D03*
%TD*%
D13*
%TO.C,Q1*%
X35052000Y34544000D03*
X32512000Y34544000D03*
D14*
X29972000Y34544000D03*
%TD*%
D15*
%TO.C,J3*%
X54864000Y26088000D03*
G36*
G01*
X56563999Y16338000D02*
X53164001Y16338000D01*
G75*
G02*
X52914000Y16588001I0J250001D01*
G01*
X52914000Y19987999D01*
G75*
G02*
X53164001Y20238000I250001J0D01*
G01*
X56563999Y20238000D01*
G75*
G02*
X56814000Y19987999I0J-250001D01*
G01*
X56814000Y16588001D01*
G75*
G02*
X56563999Y16338000I-250001J0D01*
G01*
G37*
%TD*%
%TO.C,J2*%
X3048000Y27760000D03*
G36*
G01*
X1348001Y37510000D02*
X4747999Y37510000D01*
G75*
G02*
X4998000Y37259999I0J-250001D01*
G01*
X4998000Y33860001D01*
G75*
G02*
X4747999Y33610000I-250001J0D01*
G01*
X1348001Y33610000D01*
G75*
G02*
X1098000Y33860001I0J250001D01*
G01*
X1098000Y37259999D01*
G75*
G02*
X1348001Y37510000I250001J0D01*
G01*
G37*
%TD*%
D16*
%TO.C,D3*%
X9652000Y31970000D03*
X9652000Y34070000D03*
%TD*%
%TO.C,C5*%
G36*
G01*
X9619000Y17722000D02*
X8669000Y17722000D01*
G75*
G02*
X8419000Y17972000I0J250000D01*
G01*
X8419000Y18472000D01*
G75*
G02*
X8669000Y18722000I250000J0D01*
G01*
X9619000Y18722000D01*
G75*
G02*
X9869000Y18472000I0J-250000D01*
G01*
X9869000Y17972000D01*
G75*
G02*
X9619000Y17722000I-250000J0D01*
G01*
G37*
G36*
G01*
X9619000Y15822000D02*
X8669000Y15822000D01*
G75*
G02*
X8419000Y16072000I0J250000D01*
G01*
X8419000Y16572000D01*
G75*
G02*
X8669000Y16822000I250000J0D01*
G01*
X9619000Y16822000D01*
G75*
G02*
X9869000Y16572000I0J-250000D01*
G01*
X9869000Y16072000D01*
G75*
G02*
X9619000Y15822000I-250000J0D01*
G01*
G37*
%TD*%
%TO.C,C4*%
G36*
G01*
X20861000Y27556000D02*
X21811000Y27556000D01*
G75*
G02*
X22061000Y27306000I0J-250000D01*
G01*
X22061000Y26806000D01*
G75*
G02*
X21811000Y26556000I-250000J0D01*
G01*
X20861000Y26556000D01*
G75*
G02*
X20611000Y26806000I0J250000D01*
G01*
X20611000Y27306000D01*
G75*
G02*
X20861000Y27556000I250000J0D01*
G01*
G37*
G36*
G01*
X20861000Y29456000D02*
X21811000Y29456000D01*
G75*
G02*
X22061000Y29206000I0J-250000D01*
G01*
X22061000Y28706000D01*
G75*
G02*
X21811000Y28456000I-250000J0D01*
G01*
X20861000Y28456000D01*
G75*
G02*
X20611000Y28706000I0J250000D01*
G01*
X20611000Y29206000D01*
G75*
G02*
X20861000Y29456000I250000J0D01*
G01*
G37*
%TD*%
%TO.C,C3*%
G36*
G01*
X18306000Y10810001D02*
X18306000Y9509999D01*
G75*
G02*
X18056001Y9260000I-249999J0D01*
G01*
X17405999Y9260000D01*
G75*
G02*
X17156000Y9509999I0J249999D01*
G01*
X17156000Y10810001D01*
G75*
G02*
X17405999Y11060000I249999J0D01*
G01*
X18056001Y11060000D01*
G75*
G02*
X18306000Y10810001I0J-249999D01*
G01*
G37*
G36*
G01*
X15356000Y10810001D02*
X15356000Y9509999D01*
G75*
G02*
X15106001Y9260000I-249999J0D01*
G01*
X14455999Y9260000D01*
G75*
G02*
X14206000Y9509999I0J249999D01*
G01*
X14206000Y10810001D01*
G75*
G02*
X14455999Y11060000I249999J0D01*
G01*
X15106001Y11060000D01*
G75*
G02*
X15356000Y10810001I0J-249999D01*
G01*
G37*
%TD*%
%TO.C,C2*%
G36*
G01*
X15173000Y34401999D02*
X15173000Y35702001D01*
G75*
G02*
X15422999Y35952000I249999J0D01*
G01*
X16073001Y35952000D01*
G75*
G02*
X16323000Y35702001I0J-249999D01*
G01*
X16323000Y34401999D01*
G75*
G02*
X16073001Y34152000I-249999J0D01*
G01*
X15422999Y34152000D01*
G75*
G02*
X15173000Y34401999I0J249999D01*
G01*
G37*
G36*
G01*
X12223000Y34401999D02*
X12223000Y35702001D01*
G75*
G02*
X12472999Y35952000I249999J0D01*
G01*
X13123001Y35952000D01*
G75*
G02*
X13373000Y35702001I0J-249999D01*
G01*
X13373000Y34401999D01*
G75*
G02*
X13123001Y34152000I-249999J0D01*
G01*
X12472999Y34152000D01*
G75*
G02*
X12223000Y34401999I0J249999D01*
G01*
G37*
%TD*%
D17*
%TO.C,C1*%
X32004000Y19892000D03*
D18*
X32004000Y24892000D03*
%TD*%
M02*
