%TF.GenerationSoftware,KiCad,Pcbnew,(5.1.7)-1*%
%TF.CreationDate,2020-11-11T23:56:32-08:00*%
%TF.ProjectId,H-Bridge,482d4272-6964-4676-952e-6b696361645f,rev?*%
%TF.SameCoordinates,PXac78580PY6fe96a0*%
%TF.FileFunction,Copper,L1,Top*%
%TF.FilePolarity,Positive*%
%FSLAX46Y46*%
G04 Gerber Fmt 4.6, Leading zero omitted, Abs format (unit mm)*
G04 Created by KiCad (PCBNEW (5.1.7)-1) date 2020-11-11 23:56:32*
%MOMM*%
%LPD*%
G01*
G04 APERTURE LIST*
%TA.AperFunction,ComponentPad*%
%ADD10O,1.700000X1.700000*%
%TD*%
%TA.AperFunction,ComponentPad*%
%ADD11R,1.700000X1.700000*%
%TD*%
%TA.AperFunction,SMDPad,CuDef*%
%ADD12R,1.200000X0.900000*%
%TD*%
%TA.AperFunction,ComponentPad*%
%ADD13O,1.905000X2.000000*%
%TD*%
%TA.AperFunction,ComponentPad*%
%ADD14R,1.905000X2.000000*%
%TD*%
%TA.AperFunction,ComponentPad*%
%ADD15C,3.900000*%
%TD*%
%TA.AperFunction,SMDPad,CuDef*%
%ADD16R,0.450000X0.600000*%
%TD*%
%TA.AperFunction,ComponentPad*%
%ADD17C,2.000000*%
%TD*%
%TA.AperFunction,ComponentPad*%
%ADD18R,2.000000X2.000000*%
%TD*%
%TA.AperFunction,ViaPad*%
%ADD19C,0.800000*%
%TD*%
%TA.AperFunction,Conductor*%
%ADD20C,0.500000*%
%TD*%
%TA.AperFunction,Conductor*%
%ADD21C,5.000000*%
%TD*%
%TA.AperFunction,Conductor*%
%ADD22C,0.254000*%
%TD*%
%TA.AperFunction,Conductor*%
%ADD23C,0.100000*%
%TD*%
G04 APERTURE END LIST*
D10*
%TO.P,J1,4*%
%TO.N,+12V*%
X2540000Y12700000D03*
%TO.P,J1,3*%
%TO.N,SIG_A*%
X2540000Y15240000D03*
%TO.P,J1,2*%
%TO.N,SIG_B*%
X2540000Y17780000D03*
D11*
%TO.P,J1,1*%
%TO.N,GND*%
X2540000Y20320000D03*
%TD*%
D12*
%TO.P,D2,2*%
%TO.N,+12V*%
X20828000Y18922000D03*
%TO.P,D2,1*%
%TO.N,Net-(C3-Pad1)*%
X20828000Y15622000D03*
%TD*%
%TO.P,D1,2*%
%TO.N,+12V*%
X9652000Y26290000D03*
%TO.P,D1,1*%
%TO.N,Net-(C2-Pad1)*%
X9652000Y29590000D03*
%TD*%
%TO.P,U2,8*%
%TO.N,Net-(C3-Pad1)*%
%TA.AperFunction,SMDPad,CuDef*%
G36*
G01*
X16995000Y15772000D02*
X17295000Y15772000D01*
G75*
G02*
X17445000Y15622000I0J-150000D01*
G01*
X17445000Y13972000D01*
G75*
G02*
X17295000Y13822000I-150000J0D01*
G01*
X16995000Y13822000D01*
G75*
G02*
X16845000Y13972000I0J150000D01*
G01*
X16845000Y15622000D01*
G75*
G02*
X16995000Y15772000I150000J0D01*
G01*
G37*
%TD.AperFunction*%
%TO.P,U2,7*%
%TO.N,Net-(Q3-Pad1)*%
%TA.AperFunction,SMDPad,CuDef*%
G36*
G01*
X15725000Y15772000D02*
X16025000Y15772000D01*
G75*
G02*
X16175000Y15622000I0J-150000D01*
G01*
X16175000Y13972000D01*
G75*
G02*
X16025000Y13822000I-150000J0D01*
G01*
X15725000Y13822000D01*
G75*
G02*
X15575000Y13972000I0J150000D01*
G01*
X15575000Y15622000D01*
G75*
G02*
X15725000Y15772000I150000J0D01*
G01*
G37*
%TD.AperFunction*%
%TO.P,U2,6*%
%TO.N,OUT_B*%
%TA.AperFunction,SMDPad,CuDef*%
G36*
G01*
X14455000Y15772000D02*
X14755000Y15772000D01*
G75*
G02*
X14905000Y15622000I0J-150000D01*
G01*
X14905000Y13972000D01*
G75*
G02*
X14755000Y13822000I-150000J0D01*
G01*
X14455000Y13822000D01*
G75*
G02*
X14305000Y13972000I0J150000D01*
G01*
X14305000Y15622000D01*
G75*
G02*
X14455000Y15772000I150000J0D01*
G01*
G37*
%TD.AperFunction*%
%TO.P,U2,5*%
%TO.N,+12V*%
%TA.AperFunction,SMDPad,CuDef*%
G36*
G01*
X13185000Y15772000D02*
X13485000Y15772000D01*
G75*
G02*
X13635000Y15622000I0J-150000D01*
G01*
X13635000Y13972000D01*
G75*
G02*
X13485000Y13822000I-150000J0D01*
G01*
X13185000Y13822000D01*
G75*
G02*
X13035000Y13972000I0J150000D01*
G01*
X13035000Y15622000D01*
G75*
G02*
X13185000Y15772000I150000J0D01*
G01*
G37*
%TD.AperFunction*%
%TO.P,U2,4*%
%TO.N,Net-(Q4-Pad1)*%
%TA.AperFunction,SMDPad,CuDef*%
G36*
G01*
X13185000Y20722000D02*
X13485000Y20722000D01*
G75*
G02*
X13635000Y20572000I0J-150000D01*
G01*
X13635000Y18922000D01*
G75*
G02*
X13485000Y18772000I-150000J0D01*
G01*
X13185000Y18772000D01*
G75*
G02*
X13035000Y18922000I0J150000D01*
G01*
X13035000Y20572000D01*
G75*
G02*
X13185000Y20722000I150000J0D01*
G01*
G37*
%TD.AperFunction*%
%TO.P,U2,3*%
%TO.N,GND*%
%TA.AperFunction,SMDPad,CuDef*%
G36*
G01*
X14455000Y20722000D02*
X14755000Y20722000D01*
G75*
G02*
X14905000Y20572000I0J-150000D01*
G01*
X14905000Y18922000D01*
G75*
G02*
X14755000Y18772000I-150000J0D01*
G01*
X14455000Y18772000D01*
G75*
G02*
X14305000Y18922000I0J150000D01*
G01*
X14305000Y20572000D01*
G75*
G02*
X14455000Y20722000I150000J0D01*
G01*
G37*
%TD.AperFunction*%
%TO.P,U2,2*%
%TO.N,SIG_A*%
%TA.AperFunction,SMDPad,CuDef*%
G36*
G01*
X15725000Y20722000D02*
X16025000Y20722000D01*
G75*
G02*
X16175000Y20572000I0J-150000D01*
G01*
X16175000Y18922000D01*
G75*
G02*
X16025000Y18772000I-150000J0D01*
G01*
X15725000Y18772000D01*
G75*
G02*
X15575000Y18922000I0J150000D01*
G01*
X15575000Y20572000D01*
G75*
G02*
X15725000Y20722000I150000J0D01*
G01*
G37*
%TD.AperFunction*%
%TO.P,U2,1*%
%TO.N,SIG_B*%
%TA.AperFunction,SMDPad,CuDef*%
G36*
G01*
X16995000Y20722000D02*
X17295000Y20722000D01*
G75*
G02*
X17445000Y20572000I0J-150000D01*
G01*
X17445000Y18922000D01*
G75*
G02*
X17295000Y18772000I-150000J0D01*
G01*
X16995000Y18772000D01*
G75*
G02*
X16845000Y18922000I0J150000D01*
G01*
X16845000Y20572000D01*
G75*
G02*
X16995000Y20722000I150000J0D01*
G01*
G37*
%TD.AperFunction*%
%TD*%
%TO.P,U1,8*%
%TO.N,Net-(C2-Pad1)*%
%TA.AperFunction,SMDPad,CuDef*%
G36*
G01*
X13485000Y29440000D02*
X13185000Y29440000D01*
G75*
G02*
X13035000Y29590000I0J150000D01*
G01*
X13035000Y31240000D01*
G75*
G02*
X13185000Y31390000I150000J0D01*
G01*
X13485000Y31390000D01*
G75*
G02*
X13635000Y31240000I0J-150000D01*
G01*
X13635000Y29590000D01*
G75*
G02*
X13485000Y29440000I-150000J0D01*
G01*
G37*
%TD.AperFunction*%
%TO.P,U1,7*%
%TO.N,Net-(Q1-Pad1)*%
%TA.AperFunction,SMDPad,CuDef*%
G36*
G01*
X14755000Y29440000D02*
X14455000Y29440000D01*
G75*
G02*
X14305000Y29590000I0J150000D01*
G01*
X14305000Y31240000D01*
G75*
G02*
X14455000Y31390000I150000J0D01*
G01*
X14755000Y31390000D01*
G75*
G02*
X14905000Y31240000I0J-150000D01*
G01*
X14905000Y29590000D01*
G75*
G02*
X14755000Y29440000I-150000J0D01*
G01*
G37*
%TD.AperFunction*%
%TO.P,U1,6*%
%TO.N,OUT_A*%
%TA.AperFunction,SMDPad,CuDef*%
G36*
G01*
X16025000Y29440000D02*
X15725000Y29440000D01*
G75*
G02*
X15575000Y29590000I0J150000D01*
G01*
X15575000Y31240000D01*
G75*
G02*
X15725000Y31390000I150000J0D01*
G01*
X16025000Y31390000D01*
G75*
G02*
X16175000Y31240000I0J-150000D01*
G01*
X16175000Y29590000D01*
G75*
G02*
X16025000Y29440000I-150000J0D01*
G01*
G37*
%TD.AperFunction*%
%TO.P,U1,5*%
%TO.N,+12V*%
%TA.AperFunction,SMDPad,CuDef*%
G36*
G01*
X17295000Y29440000D02*
X16995000Y29440000D01*
G75*
G02*
X16845000Y29590000I0J150000D01*
G01*
X16845000Y31240000D01*
G75*
G02*
X16995000Y31390000I150000J0D01*
G01*
X17295000Y31390000D01*
G75*
G02*
X17445000Y31240000I0J-150000D01*
G01*
X17445000Y29590000D01*
G75*
G02*
X17295000Y29440000I-150000J0D01*
G01*
G37*
%TD.AperFunction*%
%TO.P,U1,4*%
%TO.N,Net-(Q2-Pad1)*%
%TA.AperFunction,SMDPad,CuDef*%
G36*
G01*
X17295000Y24490000D02*
X16995000Y24490000D01*
G75*
G02*
X16845000Y24640000I0J150000D01*
G01*
X16845000Y26290000D01*
G75*
G02*
X16995000Y26440000I150000J0D01*
G01*
X17295000Y26440000D01*
G75*
G02*
X17445000Y26290000I0J-150000D01*
G01*
X17445000Y24640000D01*
G75*
G02*
X17295000Y24490000I-150000J0D01*
G01*
G37*
%TD.AperFunction*%
%TO.P,U1,3*%
%TO.N,GND*%
%TA.AperFunction,SMDPad,CuDef*%
G36*
G01*
X16025000Y24490000D02*
X15725000Y24490000D01*
G75*
G02*
X15575000Y24640000I0J150000D01*
G01*
X15575000Y26290000D01*
G75*
G02*
X15725000Y26440000I150000J0D01*
G01*
X16025000Y26440000D01*
G75*
G02*
X16175000Y26290000I0J-150000D01*
G01*
X16175000Y24640000D01*
G75*
G02*
X16025000Y24490000I-150000J0D01*
G01*
G37*
%TD.AperFunction*%
%TO.P,U1,2*%
%TO.N,SIG_B*%
%TA.AperFunction,SMDPad,CuDef*%
G36*
G01*
X14755000Y24490000D02*
X14455000Y24490000D01*
G75*
G02*
X14305000Y24640000I0J150000D01*
G01*
X14305000Y26290000D01*
G75*
G02*
X14455000Y26440000I150000J0D01*
G01*
X14755000Y26440000D01*
G75*
G02*
X14905000Y26290000I0J-150000D01*
G01*
X14905000Y24640000D01*
G75*
G02*
X14755000Y24490000I-150000J0D01*
G01*
G37*
%TD.AperFunction*%
%TO.P,U1,1*%
%TO.N,SIG_A*%
%TA.AperFunction,SMDPad,CuDef*%
G36*
G01*
X13485000Y24490000D02*
X13185000Y24490000D01*
G75*
G02*
X13035000Y24640000I0J150000D01*
G01*
X13035000Y26290000D01*
G75*
G02*
X13185000Y26440000I150000J0D01*
G01*
X13485000Y26440000D01*
G75*
G02*
X13635000Y26290000I0J-150000D01*
G01*
X13635000Y24640000D01*
G75*
G02*
X13485000Y24490000I-150000J0D01*
G01*
G37*
%TD.AperFunction*%
%TD*%
%TO.P,R1,2*%
%TO.N,OUT_A*%
%TA.AperFunction,SMDPad,CuDef*%
G36*
G01*
X48650997Y21390500D02*
X49901003Y21390500D01*
G75*
G02*
X50151000Y21140503I0J-249997D01*
G01*
X50151000Y20515497D01*
G75*
G02*
X49901003Y20265500I-249997J0D01*
G01*
X48650997Y20265500D01*
G75*
G02*
X48401000Y20515497I0J249997D01*
G01*
X48401000Y21140503D01*
G75*
G02*
X48650997Y21390500I249997J0D01*
G01*
G37*
%TD.AperFunction*%
%TO.P,R1,1*%
%TO.N,OUT_B*%
%TA.AperFunction,SMDPad,CuDef*%
G36*
G01*
X48650997Y24315500D02*
X49901003Y24315500D01*
G75*
G02*
X50151000Y24065503I0J-249997D01*
G01*
X50151000Y23440497D01*
G75*
G02*
X49901003Y23190500I-249997J0D01*
G01*
X48650997Y23190500D01*
G75*
G02*
X48401000Y23440497I0J249997D01*
G01*
X48401000Y24065503D01*
G75*
G02*
X48650997Y24315500I249997J0D01*
G01*
G37*
%TD.AperFunction*%
%TD*%
D13*
%TO.P,Q4,3*%
%TO.N,GND*%
X29972000Y10668000D03*
%TO.P,Q4,2*%
%TO.N,OUT_B*%
X32512000Y10668000D03*
D14*
%TO.P,Q4,1*%
%TO.N,Net-(Q4-Pad1)*%
X35052000Y10668000D03*
%TD*%
D13*
%TO.P,Q3,3*%
%TO.N,OUT_B*%
X51308000Y34544000D03*
%TO.P,Q3,2*%
%TO.N,+12V*%
X48768000Y34544000D03*
D14*
%TO.P,Q3,1*%
%TO.N,Net-(Q3-Pad1)*%
X46228000Y34544000D03*
%TD*%
D13*
%TO.P,Q2,3*%
%TO.N,GND*%
X46228000Y10668000D03*
%TO.P,Q2,2*%
%TO.N,OUT_A*%
X48768000Y10668000D03*
D14*
%TO.P,Q2,1*%
%TO.N,Net-(Q2-Pad1)*%
X51308000Y10668000D03*
%TD*%
D13*
%TO.P,Q1,3*%
%TO.N,OUT_A*%
X35052000Y34544000D03*
%TO.P,Q1,2*%
%TO.N,+12V*%
X32512000Y34544000D03*
D14*
%TO.P,Q1,1*%
%TO.N,Net-(Q1-Pad1)*%
X29972000Y34544000D03*
%TD*%
D15*
%TO.P,J3,2*%
%TO.N,OUT_B*%
X54864000Y26088000D03*
%TO.P,J3,1*%
%TO.N,OUT_A*%
%TA.AperFunction,ComponentPad*%
G36*
G01*
X56563999Y16338000D02*
X53164001Y16338000D01*
G75*
G02*
X52914000Y16588001I0J250001D01*
G01*
X52914000Y19987999D01*
G75*
G02*
X53164001Y20238000I250001J0D01*
G01*
X56563999Y20238000D01*
G75*
G02*
X56814000Y19987999I0J-250001D01*
G01*
X56814000Y16588001D01*
G75*
G02*
X56563999Y16338000I-250001J0D01*
G01*
G37*
%TD.AperFunction*%
%TD*%
%TO.P,J2,2*%
%TO.N,GND*%
X3048000Y27760000D03*
%TO.P,J2,1*%
%TO.N,+12V*%
%TA.AperFunction,ComponentPad*%
G36*
G01*
X1348001Y37510000D02*
X4747999Y37510000D01*
G75*
G02*
X4998000Y37259999I0J-250001D01*
G01*
X4998000Y33860001D01*
G75*
G02*
X4747999Y33610000I-250001J0D01*
G01*
X1348001Y33610000D01*
G75*
G02*
X1098000Y33860001I0J250001D01*
G01*
X1098000Y37259999D01*
G75*
G02*
X1348001Y37510000I250001J0D01*
G01*
G37*
%TD.AperFunction*%
%TD*%
D16*
%TO.P,D3,2*%
%TO.N,GND*%
X9652000Y31970000D03*
%TO.P,D3,1*%
%TO.N,+12V*%
X9652000Y34070000D03*
%TD*%
%TO.P,C5,2*%
%TO.N,GND*%
%TA.AperFunction,SMDPad,CuDef*%
G36*
G01*
X9619000Y17722000D02*
X8669000Y17722000D01*
G75*
G02*
X8419000Y17972000I0J250000D01*
G01*
X8419000Y18472000D01*
G75*
G02*
X8669000Y18722000I250000J0D01*
G01*
X9619000Y18722000D01*
G75*
G02*
X9869000Y18472000I0J-250000D01*
G01*
X9869000Y17972000D01*
G75*
G02*
X9619000Y17722000I-250000J0D01*
G01*
G37*
%TD.AperFunction*%
%TO.P,C5,1*%
%TO.N,+12V*%
%TA.AperFunction,SMDPad,CuDef*%
G36*
G01*
X9619000Y15822000D02*
X8669000Y15822000D01*
G75*
G02*
X8419000Y16072000I0J250000D01*
G01*
X8419000Y16572000D01*
G75*
G02*
X8669000Y16822000I250000J0D01*
G01*
X9619000Y16822000D01*
G75*
G02*
X9869000Y16572000I0J-250000D01*
G01*
X9869000Y16072000D01*
G75*
G02*
X9619000Y15822000I-250000J0D01*
G01*
G37*
%TD.AperFunction*%
%TD*%
%TO.P,C4,2*%
%TO.N,GND*%
%TA.AperFunction,SMDPad,CuDef*%
G36*
G01*
X20861000Y27556000D02*
X21811000Y27556000D01*
G75*
G02*
X22061000Y27306000I0J-250000D01*
G01*
X22061000Y26806000D01*
G75*
G02*
X21811000Y26556000I-250000J0D01*
G01*
X20861000Y26556000D01*
G75*
G02*
X20611000Y26806000I0J250000D01*
G01*
X20611000Y27306000D01*
G75*
G02*
X20861000Y27556000I250000J0D01*
G01*
G37*
%TD.AperFunction*%
%TO.P,C4,1*%
%TO.N,+12V*%
%TA.AperFunction,SMDPad,CuDef*%
G36*
G01*
X20861000Y29456000D02*
X21811000Y29456000D01*
G75*
G02*
X22061000Y29206000I0J-250000D01*
G01*
X22061000Y28706000D01*
G75*
G02*
X21811000Y28456000I-250000J0D01*
G01*
X20861000Y28456000D01*
G75*
G02*
X20611000Y28706000I0J250000D01*
G01*
X20611000Y29206000D01*
G75*
G02*
X20861000Y29456000I250000J0D01*
G01*
G37*
%TD.AperFunction*%
%TD*%
%TO.P,C3,1*%
%TO.N,Net-(C3-Pad1)*%
%TA.AperFunction,SMDPad,CuDef*%
G36*
G01*
X18306000Y10810001D02*
X18306000Y9509999D01*
G75*
G02*
X18056001Y9260000I-249999J0D01*
G01*
X17405999Y9260000D01*
G75*
G02*
X17156000Y9509999I0J249999D01*
G01*
X17156000Y10810001D01*
G75*
G02*
X17405999Y11060000I249999J0D01*
G01*
X18056001Y11060000D01*
G75*
G02*
X18306000Y10810001I0J-249999D01*
G01*
G37*
%TD.AperFunction*%
%TO.P,C3,2*%
%TO.N,OUT_B*%
%TA.AperFunction,SMDPad,CuDef*%
G36*
G01*
X15356000Y10810001D02*
X15356000Y9509999D01*
G75*
G02*
X15106001Y9260000I-249999J0D01*
G01*
X14455999Y9260000D01*
G75*
G02*
X14206000Y9509999I0J249999D01*
G01*
X14206000Y10810001D01*
G75*
G02*
X14455999Y11060000I249999J0D01*
G01*
X15106001Y11060000D01*
G75*
G02*
X15356000Y10810001I0J-249999D01*
G01*
G37*
%TD.AperFunction*%
%TD*%
%TO.P,C2,2*%
%TO.N,OUT_A*%
%TA.AperFunction,SMDPad,CuDef*%
G36*
G01*
X15173000Y34401999D02*
X15173000Y35702001D01*
G75*
G02*
X15422999Y35952000I249999J0D01*
G01*
X16073001Y35952000D01*
G75*
G02*
X16323000Y35702001I0J-249999D01*
G01*
X16323000Y34401999D01*
G75*
G02*
X16073001Y34152000I-249999J0D01*
G01*
X15422999Y34152000D01*
G75*
G02*
X15173000Y34401999I0J249999D01*
G01*
G37*
%TD.AperFunction*%
%TO.P,C2,1*%
%TO.N,Net-(C2-Pad1)*%
%TA.AperFunction,SMDPad,CuDef*%
G36*
G01*
X12223000Y34401999D02*
X12223000Y35702001D01*
G75*
G02*
X12472999Y35952000I249999J0D01*
G01*
X13123001Y35952000D01*
G75*
G02*
X13373000Y35702001I0J-249999D01*
G01*
X13373000Y34401999D01*
G75*
G02*
X13123001Y34152000I-249999J0D01*
G01*
X12472999Y34152000D01*
G75*
G02*
X12223000Y34401999I0J249999D01*
G01*
G37*
%TD.AperFunction*%
%TD*%
D17*
%TO.P,C1,2*%
%TO.N,GND*%
X32004000Y19892000D03*
D18*
%TO.P,C1,1*%
%TO.N,+12V*%
X32004000Y24892000D03*
%TD*%
D19*
%TO.N,GND*%
X9144000Y18161000D03*
X21336000Y27051000D03*
X15875000Y25400000D03*
X14605000Y19685000D03*
X9652000Y32004000D03*
%TO.N,OUT_A*%
X15748000Y35052000D03*
X49276000Y20320000D03*
%TO.N,OUT_B*%
X14781000Y10160000D03*
%TO.N,Net-(Q2-Pad1)*%
X17145000Y24892000D03*
X40640000Y15240000D03*
%TO.N,Net-(Q4-Pad1)*%
X13335000Y19177000D03*
%TD*%
D20*
%TO.N,OUT_A*%
X15748000Y35052000D02*
X15748000Y35052000D01*
X15875000Y34925000D02*
X15748000Y35052000D01*
X15875000Y30415000D02*
X15875000Y34925000D01*
%TO.N,Net-(C2-Pad1)*%
X13335000Y34515000D02*
X12798000Y35052000D01*
X13335000Y30415000D02*
X13335000Y34515000D01*
X9652000Y29590000D02*
X9652000Y29591000D01*
X12511000Y29591000D02*
X13335000Y30415000D01*
X9652000Y29591000D02*
X12511000Y29591000D01*
%TO.N,OUT_B*%
X14781000Y10160000D02*
X14781000Y10160000D01*
D21*
X54864000Y26088000D02*
X46048000Y26088000D01*
D20*
X14605000Y10336000D02*
X14781000Y10160000D01*
X14605000Y14797000D02*
X14605000Y10336000D01*
%TO.N,Net-(C3-Pad1)*%
X17731000Y14211000D02*
X17145000Y14797000D01*
X17731000Y10160000D02*
X17731000Y14211000D01*
X17970000Y15622000D02*
X17145000Y14797000D01*
X20828000Y15622000D02*
X17970000Y15622000D01*
%TO.N,SIG_A*%
X13335000Y23262000D02*
X13335000Y25465000D01*
X15875000Y20722000D02*
X13335000Y23262000D01*
X15875000Y19747000D02*
X15875000Y20722000D01*
X3048000Y15240000D02*
X2540000Y15240000D01*
X11070000Y23262000D02*
X3048000Y15240000D01*
X13335000Y23262000D02*
X11070000Y23262000D01*
%TO.N,SIG_B*%
X17145000Y19747000D02*
X17145000Y20955000D01*
X14605000Y23495000D02*
X14605000Y25465000D01*
X17145000Y20955000D02*
X14605000Y23495000D01*
X10668000Y24892000D02*
X3556000Y17780000D01*
X11684000Y26924000D02*
X11684000Y25400000D01*
X11176000Y24892000D02*
X10668000Y24892000D01*
X12700000Y27940000D02*
X11684000Y26924000D01*
X3556000Y17780000D02*
X2540000Y17780000D01*
X13716000Y27940000D02*
X12700000Y27940000D01*
X11684000Y25400000D02*
X11176000Y24892000D01*
X14605000Y27051000D02*
X13716000Y27940000D01*
X14605000Y25465000D02*
X14605000Y27051000D01*
%TO.N,Net-(Q1-Pad1)*%
X14605000Y30415000D02*
X14605000Y29083000D01*
X14605000Y29083000D02*
X15240000Y28448000D01*
X15240000Y28448000D02*
X18288000Y28448000D01*
X18288000Y28448000D02*
X19304000Y29464000D01*
X19304000Y29464000D02*
X19304000Y30480000D01*
X23368000Y34544000D02*
X29972000Y34544000D01*
X19304000Y30480000D02*
X23368000Y34544000D01*
%TO.N,Net-(Q2-Pad1)*%
X51308000Y10668000D02*
X51308000Y11684000D01*
X51308000Y11684000D02*
X49276000Y13716000D01*
X42164000Y13716000D02*
X40640000Y15240000D01*
X49276000Y13716000D02*
X42164000Y13716000D01*
%TO.N,Net-(Q3-Pad1)*%
X15875000Y16653456D02*
X16493544Y17272000D01*
X15875000Y14797000D02*
X15875000Y16653456D01*
X16493544Y17272000D02*
X17780000Y17272000D01*
X17780000Y17272000D02*
X18796000Y18288000D01*
X18796000Y18288000D02*
X18796000Y20320000D01*
X18796000Y20320000D02*
X26924000Y28448000D01*
X40132000Y28448000D02*
X46228000Y34544000D01*
X26924000Y28448000D02*
X40132000Y28448000D01*
%TD*%
D22*
%TO.N,OUT_B*%
X52197000Y33528000D02*
X52199440Y33503224D01*
X52206667Y33479399D01*
X52218403Y33457443D01*
X52234197Y33438197D01*
X52253553Y33422330D01*
X53652060Y32489992D01*
X34969683Y12797757D01*
X34232156Y12306072D01*
X34099500Y12306072D01*
X33975018Y12293812D01*
X33855320Y12257502D01*
X33745006Y12198537D01*
X33648315Y12119185D01*
X33568963Y12022494D01*
X33509998Y11912180D01*
X33476709Y11802441D01*
X33457553Y11789670D01*
X33438291Y11773896D01*
X33422477Y11754668D01*
X33410718Y11732724D01*
X33403466Y11708907D01*
X33401000Y11684000D01*
X33401000Y9779000D01*
X31623000Y9779000D01*
X31623000Y11684000D01*
X31620560Y11708776D01*
X31613333Y11732601D01*
X31601597Y11754557D01*
X31585803Y11773803D01*
X31566447Y11789670D01*
X30167940Y12722008D01*
X48850317Y32414243D01*
X50362447Y33422330D01*
X50381709Y33438104D01*
X50397523Y33457332D01*
X50409282Y33479276D01*
X50416534Y33503093D01*
X50419000Y33528000D01*
X50419000Y35433000D01*
X52197000Y35433000D01*
X52197000Y33528000D01*
%TA.AperFunction,Conductor*%
D23*
G36*
X52197000Y33528000D02*
G01*
X52199440Y33503224D01*
X52206667Y33479399D01*
X52218403Y33457443D01*
X52234197Y33438197D01*
X52253553Y33422330D01*
X53652060Y32489992D01*
X34969683Y12797757D01*
X34232156Y12306072D01*
X34099500Y12306072D01*
X33975018Y12293812D01*
X33855320Y12257502D01*
X33745006Y12198537D01*
X33648315Y12119185D01*
X33568963Y12022494D01*
X33509998Y11912180D01*
X33476709Y11802441D01*
X33457553Y11789670D01*
X33438291Y11773896D01*
X33422477Y11754668D01*
X33410718Y11732724D01*
X33403466Y11708907D01*
X33401000Y11684000D01*
X33401000Y9779000D01*
X31623000Y9779000D01*
X31623000Y11684000D01*
X31620560Y11708776D01*
X31613333Y11732601D01*
X31601597Y11754557D01*
X31585803Y11773803D01*
X31566447Y11789670D01*
X30167940Y12722008D01*
X48850317Y32414243D01*
X50362447Y33422330D01*
X50381709Y33438104D01*
X50397523Y33457332D01*
X50409282Y33479276D01*
X50416534Y33503093D01*
X50419000Y33528000D01*
X50419000Y35433000D01*
X52197000Y35433000D01*
X52197000Y33528000D01*
G37*
%TD.AperFunction*%
%TD*%
D22*
%TO.N,+12V*%
X57277000Y28089479D02*
X57091505Y28315505D01*
X56614140Y28707269D01*
X56069517Y28998376D01*
X55478567Y29177638D01*
X55018002Y29223000D01*
X51602968Y29223000D01*
X54308669Y32074955D01*
X54376352Y32159765D01*
X54434917Y32269610D01*
X54470928Y32388769D01*
X54483000Y32512664D01*
X54470669Y32636534D01*
X54434409Y32755618D01*
X54375614Y32865339D01*
X54296543Y32961482D01*
X54200235Y33040352D01*
X52959000Y33867842D01*
X52959000Y35560000D01*
X52946799Y35683882D01*
X52910664Y35803004D01*
X52851983Y35912787D01*
X52773013Y36009013D01*
X52676787Y36087983D01*
X52567004Y36146664D01*
X52447882Y36182799D01*
X52324000Y36195000D01*
X50292000Y36195000D01*
X50168118Y36182799D01*
X50048996Y36146664D01*
X49939213Y36087983D01*
X49842987Y36009013D01*
X49764017Y35912787D01*
X49705336Y35803004D01*
X49669201Y35683882D01*
X49657000Y35560000D01*
X49657000Y33867842D01*
X48415765Y33040352D01*
X48307331Y32949045D01*
X44231114Y28652492D01*
X43820495Y28315505D01*
X43428731Y27838140D01*
X43390285Y27766213D01*
X29511331Y13137045D01*
X29443648Y13052235D01*
X29385083Y12942390D01*
X29349072Y12823231D01*
X29337000Y12699336D01*
X29349331Y12575466D01*
X29385591Y12456382D01*
X29444386Y12346661D01*
X29523457Y12250518D01*
X29534283Y12241652D01*
X29361552Y12189255D01*
X29085766Y12041845D01*
X28844037Y11843463D01*
X28645655Y11601735D01*
X28498245Y11325949D01*
X28407470Y11026704D01*
X28384500Y10793486D01*
X28384500Y10542515D01*
X28407470Y10309297D01*
X28498245Y10010052D01*
X28645655Y9734266D01*
X28844037Y9492537D01*
X29085765Y9294155D01*
X29361551Y9146745D01*
X29660796Y9055970D01*
X29972000Y9025319D01*
X30283203Y9055970D01*
X30582448Y9146745D01*
X30858234Y9294155D01*
X30936422Y9358322D01*
X30968017Y9299213D01*
X31046987Y9202987D01*
X31143213Y9124017D01*
X31252996Y9065336D01*
X31372118Y9029201D01*
X31496000Y9017000D01*
X33528000Y9017000D01*
X33651882Y9029201D01*
X33771004Y9065336D01*
X33825474Y9094451D01*
X33855320Y9078498D01*
X33975018Y9042188D01*
X34099500Y9029928D01*
X36004500Y9029928D01*
X36128982Y9042188D01*
X36248680Y9078498D01*
X36358994Y9137463D01*
X36455685Y9216815D01*
X36535037Y9313506D01*
X36594002Y9423820D01*
X36630312Y9543518D01*
X36642572Y9668000D01*
X36642572Y11668000D01*
X36630312Y11792482D01*
X36594002Y11912180D01*
X36535037Y12022494D01*
X36455685Y12119185D01*
X36358994Y12198537D01*
X36248680Y12257502D01*
X36128982Y12293812D01*
X36004500Y12306072D01*
X35553575Y12306072D01*
X38433756Y15341939D01*
X39605000Y15341939D01*
X39605000Y15138061D01*
X39644774Y14938102D01*
X39722795Y14749744D01*
X39836063Y14580226D01*
X39980226Y14436063D01*
X40149744Y14322795D01*
X40338102Y14244774D01*
X40394957Y14233465D01*
X41507470Y13120951D01*
X41535183Y13087183D01*
X41568951Y13059470D01*
X41568953Y13059468D01*
X41640452Y13000790D01*
X41669941Y12976589D01*
X41823687Y12894411D01*
X41990510Y12843805D01*
X42120523Y12831000D01*
X42120533Y12831000D01*
X42163999Y12826719D01*
X42207465Y12831000D01*
X48909422Y12831000D01*
X49787679Y11952742D01*
X49780095Y11938554D01*
X49654235Y12041845D01*
X49378449Y12189255D01*
X49079204Y12280030D01*
X48768000Y12310681D01*
X48456797Y12280030D01*
X48157552Y12189255D01*
X47881766Y12041845D01*
X47640037Y11843463D01*
X47498000Y11670391D01*
X47355963Y11843463D01*
X47114235Y12041845D01*
X46838449Y12189255D01*
X46539204Y12280030D01*
X46228000Y12310681D01*
X45916797Y12280030D01*
X45617552Y12189255D01*
X45341766Y12041845D01*
X45100037Y11843463D01*
X44901655Y11601735D01*
X44754245Y11325949D01*
X44663470Y11026704D01*
X44640500Y10793486D01*
X44640500Y10542515D01*
X44663470Y10309297D01*
X44754245Y10010052D01*
X44901655Y9734266D01*
X45100037Y9492537D01*
X45341765Y9294155D01*
X45617551Y9146745D01*
X45916796Y9055970D01*
X46228000Y9025319D01*
X46539203Y9055970D01*
X46838448Y9146745D01*
X47114234Y9294155D01*
X47355963Y9492537D01*
X47498000Y9665609D01*
X47640037Y9492537D01*
X47881765Y9294155D01*
X48157551Y9146745D01*
X48456796Y9055970D01*
X48768000Y9025319D01*
X49079203Y9055970D01*
X49378448Y9146745D01*
X49654234Y9294155D01*
X49780095Y9397447D01*
X49824963Y9313506D01*
X49904315Y9216815D01*
X50001006Y9137463D01*
X50111320Y9078498D01*
X50231018Y9042188D01*
X50355500Y9029928D01*
X52260500Y9029928D01*
X52384982Y9042188D01*
X52504680Y9078498D01*
X52614994Y9137463D01*
X52711685Y9216815D01*
X52791037Y9313506D01*
X52850002Y9423820D01*
X52886312Y9543518D01*
X52898572Y9668000D01*
X52898572Y11668000D01*
X52886312Y11792482D01*
X52850002Y11912180D01*
X52791037Y12022494D01*
X52711685Y12119185D01*
X52614994Y12198537D01*
X52504680Y12257502D01*
X52384982Y12293812D01*
X52260500Y12306072D01*
X51942353Y12306072D01*
X51936817Y12312817D01*
X51903049Y12340530D01*
X49932534Y14311044D01*
X49904817Y14344817D01*
X49770059Y14455411D01*
X49616313Y14537589D01*
X49449490Y14588195D01*
X49319477Y14601000D01*
X49319469Y14601000D01*
X49276000Y14605281D01*
X49232531Y14601000D01*
X42530579Y14601000D01*
X41646535Y15485043D01*
X41635226Y15541898D01*
X41557205Y15730256D01*
X41443937Y15899774D01*
X41299774Y16043937D01*
X41130256Y16157205D01*
X40941898Y16235226D01*
X40741939Y16275000D01*
X40538061Y16275000D01*
X40338102Y16235226D01*
X40149744Y16157205D01*
X39980226Y16043937D01*
X39836063Y15899774D01*
X39722795Y15730256D01*
X39644774Y15541898D01*
X39605000Y15341939D01*
X38433756Y15341939D01*
X43934958Y21140503D01*
X47762928Y21140503D01*
X47762928Y20515497D01*
X47779992Y20342243D01*
X47830528Y20175648D01*
X47912595Y20022112D01*
X48023037Y19887537D01*
X48157612Y19777095D01*
X48311148Y19695028D01*
X48477743Y19644492D01*
X48488895Y19643394D01*
X48616226Y19516063D01*
X48785744Y19402795D01*
X48974102Y19324774D01*
X49174061Y19285000D01*
X49377939Y19285000D01*
X49577898Y19324774D01*
X49766256Y19402795D01*
X49935774Y19516063D01*
X50063105Y19643394D01*
X50074257Y19644492D01*
X50240852Y19695028D01*
X50394388Y19777095D01*
X50528963Y19887537D01*
X50639405Y20022112D01*
X50721472Y20175648D01*
X50772008Y20342243D01*
X50789072Y20515497D01*
X50789072Y21140503D01*
X50772008Y21313757D01*
X50721472Y21480352D01*
X50639405Y21633888D01*
X50528963Y21768463D01*
X50394388Y21878905D01*
X50240852Y21960972D01*
X50074257Y22011508D01*
X49901003Y22028572D01*
X48650997Y22028572D01*
X48477743Y22011508D01*
X48311148Y21960972D01*
X48157612Y21878905D01*
X48023037Y21768463D01*
X47912595Y21633888D01*
X47830528Y21480352D01*
X47779992Y21313757D01*
X47762928Y21140503D01*
X43934958Y21140503D01*
X45674973Y22974572D01*
X45893998Y22953000D01*
X47909448Y22953000D01*
X47912595Y22947112D01*
X48023037Y22812537D01*
X48157612Y22702095D01*
X48311148Y22620028D01*
X48477743Y22569492D01*
X48650997Y22552428D01*
X49901003Y22552428D01*
X50074257Y22569492D01*
X50240852Y22620028D01*
X50394388Y22702095D01*
X50528963Y22812537D01*
X50639405Y22947112D01*
X50642552Y22953000D01*
X55018002Y22953000D01*
X55478567Y22998362D01*
X56069517Y23177624D01*
X56614140Y23468731D01*
X57091505Y23860495D01*
X57277000Y24086521D01*
X57277000Y20512342D01*
X57191961Y20615961D01*
X57057386Y20726405D01*
X56903850Y20808471D01*
X56737253Y20859008D01*
X56563999Y20876072D01*
X53164001Y20876072D01*
X52990747Y20859008D01*
X52824150Y20808471D01*
X52670614Y20726405D01*
X52536039Y20615961D01*
X52425595Y20481386D01*
X52343529Y20327850D01*
X52292992Y20161253D01*
X52275928Y19987999D01*
X52275928Y16588001D01*
X52292992Y16414747D01*
X52343529Y16248150D01*
X52425595Y16094614D01*
X52536039Y15960039D01*
X52670614Y15849595D01*
X52824150Y15767529D01*
X52990747Y15716992D01*
X53164001Y15699928D01*
X56563999Y15699928D01*
X56737253Y15716992D01*
X56903850Y15767529D01*
X57057386Y15849595D01*
X57191961Y15960039D01*
X57277000Y16063658D01*
X57277000Y127000D01*
X127000Y127000D01*
X127000Y21170000D01*
X1051928Y21170000D01*
X1051928Y19470000D01*
X1064188Y19345518D01*
X1100498Y19225820D01*
X1159463Y19115506D01*
X1238815Y19018815D01*
X1335506Y18939463D01*
X1445820Y18880498D01*
X1518380Y18858487D01*
X1386525Y18726632D01*
X1224010Y18483411D01*
X1112068Y18213158D01*
X1055000Y17926260D01*
X1055000Y17633740D01*
X1112068Y17346842D01*
X1224010Y17076589D01*
X1386525Y16833368D01*
X1593368Y16626525D01*
X1767760Y16510000D01*
X1593368Y16393475D01*
X1386525Y16186632D01*
X1224010Y15943411D01*
X1112068Y15673158D01*
X1055000Y15386260D01*
X1055000Y15093740D01*
X1112068Y14806842D01*
X1224010Y14536589D01*
X1386525Y14293368D01*
X1593368Y14086525D01*
X1836589Y13924010D01*
X2106842Y13812068D01*
X2393740Y13755000D01*
X2686260Y13755000D01*
X2973158Y13812068D01*
X3243411Y13924010D01*
X3486632Y14086525D01*
X3693475Y14293368D01*
X3855990Y14536589D01*
X3967932Y14806842D01*
X3993138Y14933560D01*
X7838556Y18778978D01*
X7797992Y18645254D01*
X7780928Y18472000D01*
X7780928Y17972000D01*
X7797992Y17798746D01*
X7848528Y17632150D01*
X7930595Y17478614D01*
X8041038Y17344038D01*
X8175614Y17233595D01*
X8329150Y17151528D01*
X8495746Y17100992D01*
X8669000Y17083928D01*
X9619000Y17083928D01*
X9792254Y17100992D01*
X9958850Y17151528D01*
X10112386Y17233595D01*
X10246962Y17344038D01*
X10357405Y17478614D01*
X10439472Y17632150D01*
X10490008Y17798746D01*
X10507072Y17972000D01*
X10507072Y18472000D01*
X10490008Y18645254D01*
X10439472Y18811850D01*
X10357405Y18965386D01*
X10246962Y19099962D01*
X10112386Y19210405D01*
X9958850Y19292472D01*
X9792254Y19343008D01*
X9619000Y19360072D01*
X8669000Y19360072D01*
X8495746Y19343008D01*
X8362022Y19302444D01*
X11436579Y22377000D01*
X12968422Y22377000D01*
X14082985Y21262437D01*
X14017171Y21227258D01*
X13970000Y21188546D01*
X13922829Y21227258D01*
X13786582Y21300084D01*
X13638745Y21344929D01*
X13485000Y21360072D01*
X13185000Y21360072D01*
X13031255Y21344929D01*
X12883418Y21300084D01*
X12747171Y21227258D01*
X12627749Y21129251D01*
X12529742Y21009829D01*
X12456916Y20873582D01*
X12412071Y20725745D01*
X12396928Y20572000D01*
X12396928Y19616879D01*
X12339774Y19478898D01*
X12300000Y19278939D01*
X12300000Y19075061D01*
X12339774Y18875102D01*
X12417795Y18686744D01*
X12452595Y18634661D01*
X12456916Y18620418D01*
X12529742Y18484171D01*
X12627749Y18364749D01*
X12747171Y18266742D01*
X12883418Y18193916D01*
X13031255Y18149071D01*
X13185000Y18133928D01*
X13485000Y18133928D01*
X13638745Y18149071D01*
X13786582Y18193916D01*
X13922829Y18266742D01*
X13970000Y18305454D01*
X14017171Y18266742D01*
X14153418Y18193916D01*
X14301255Y18149071D01*
X14455000Y18133928D01*
X14755000Y18133928D01*
X14908745Y18149071D01*
X15056582Y18193916D01*
X15192829Y18266742D01*
X15240000Y18305454D01*
X15287171Y18266742D01*
X15423418Y18193916D01*
X15571255Y18149071D01*
X15725000Y18133928D01*
X16025000Y18133928D01*
X16178745Y18149071D01*
X16326582Y18193916D01*
X16462829Y18266742D01*
X16510000Y18305454D01*
X16557171Y18266742D01*
X16693418Y18193916D01*
X16815116Y18157000D01*
X16537009Y18157000D01*
X16493543Y18161281D01*
X16450077Y18157000D01*
X16450067Y18157000D01*
X16320054Y18144195D01*
X16153231Y18093589D01*
X15999485Y18011411D01*
X15999483Y18011410D01*
X15999484Y18011410D01*
X15898497Y17928532D01*
X15898495Y17928530D01*
X15864727Y17900817D01*
X15837014Y17867049D01*
X15279951Y17309985D01*
X15246184Y17282273D01*
X15218471Y17248505D01*
X15218468Y17248502D01*
X15135590Y17147515D01*
X15053412Y16993769D01*
X15002805Y16826946D01*
X14985719Y16653456D01*
X14990001Y16609977D01*
X14990001Y16370281D01*
X14908745Y16394929D01*
X14755000Y16410072D01*
X14455000Y16410072D01*
X14301255Y16394929D01*
X14153418Y16350084D01*
X14017171Y16277258D01*
X13897749Y16179251D01*
X13799742Y16059829D01*
X13726916Y15923582D01*
X13682071Y15775745D01*
X13666928Y15622000D01*
X13666928Y13972000D01*
X13682071Y13818255D01*
X13720000Y13693217D01*
X13720001Y11306318D01*
X13717595Y11303387D01*
X13635528Y11149851D01*
X13584992Y10983255D01*
X13567928Y10810001D01*
X13567928Y9509999D01*
X13584992Y9336745D01*
X13635528Y9170149D01*
X13717595Y9016613D01*
X13828038Y8882038D01*
X13962613Y8771595D01*
X14116149Y8689528D01*
X14282745Y8638992D01*
X14455999Y8621928D01*
X15106001Y8621928D01*
X15279255Y8638992D01*
X15445851Y8689528D01*
X15599387Y8771595D01*
X15733962Y8882038D01*
X15844405Y9016613D01*
X15926472Y9170149D01*
X15977008Y9336745D01*
X15994072Y9509999D01*
X15994072Y10810001D01*
X15977008Y10983255D01*
X15926472Y11149851D01*
X15844405Y11303387D01*
X15733962Y11437962D01*
X15599387Y11548405D01*
X15490000Y11606874D01*
X15490000Y13223719D01*
X15571255Y13199071D01*
X15725000Y13183928D01*
X16025000Y13183928D01*
X16178745Y13199071D01*
X16326582Y13243916D01*
X16462829Y13316742D01*
X16510000Y13355454D01*
X16557171Y13316742D01*
X16693418Y13243916D01*
X16841255Y13199071D01*
X16846001Y13198604D01*
X16846000Y11493737D01*
X16778038Y11437962D01*
X16667595Y11303387D01*
X16585528Y11149851D01*
X16534992Y10983255D01*
X16517928Y10810001D01*
X16517928Y9509999D01*
X16534992Y9336745D01*
X16585528Y9170149D01*
X16667595Y9016613D01*
X16778038Y8882038D01*
X16912613Y8771595D01*
X17066149Y8689528D01*
X17232745Y8638992D01*
X17405999Y8621928D01*
X18056001Y8621928D01*
X18229255Y8638992D01*
X18395851Y8689528D01*
X18549387Y8771595D01*
X18683962Y8882038D01*
X18794405Y9016613D01*
X18876472Y9170149D01*
X18927008Y9336745D01*
X18944072Y9509999D01*
X18944072Y10810001D01*
X18927008Y10983255D01*
X18876472Y11149851D01*
X18794405Y11303387D01*
X18683962Y11437962D01*
X18616000Y11493737D01*
X18616000Y14167535D01*
X18620281Y14211001D01*
X18616000Y14254467D01*
X18616000Y14254477D01*
X18603195Y14384490D01*
X18552589Y14551313D01*
X18470411Y14705059D01*
X18444197Y14737000D01*
X19763532Y14737000D01*
X19776815Y14720815D01*
X19873506Y14641463D01*
X19983820Y14582498D01*
X20103518Y14546188D01*
X20228000Y14533928D01*
X21428000Y14533928D01*
X21552482Y14546188D01*
X21672180Y14582498D01*
X21782494Y14641463D01*
X21879185Y14720815D01*
X21958537Y14817506D01*
X22017502Y14927820D01*
X22053812Y15047518D01*
X22066072Y15172000D01*
X22066072Y16072000D01*
X22053812Y16196482D01*
X22017502Y16316180D01*
X21958537Y16426494D01*
X21879185Y16523185D01*
X21782494Y16602537D01*
X21672180Y16661502D01*
X21552482Y16697812D01*
X21428000Y16710072D01*
X20228000Y16710072D01*
X20103518Y16697812D01*
X19983820Y16661502D01*
X19873506Y16602537D01*
X19776815Y16523185D01*
X19763532Y16507000D01*
X18226185Y16507000D01*
X18274059Y16532589D01*
X18408817Y16643183D01*
X18436534Y16676956D01*
X19391050Y17631471D01*
X19424817Y17659183D01*
X19535411Y17793941D01*
X19617589Y17947687D01*
X19668195Y18114510D01*
X19681000Y18244523D01*
X19681000Y18244531D01*
X19685281Y18288000D01*
X19681000Y18331469D01*
X19681000Y19953422D01*
X19780611Y20053033D01*
X30369000Y20053033D01*
X30369000Y19730967D01*
X30431832Y19415088D01*
X30555082Y19117537D01*
X30734013Y18849748D01*
X30961748Y18622013D01*
X31229537Y18443082D01*
X31527088Y18319832D01*
X31842967Y18257000D01*
X32165033Y18257000D01*
X32480912Y18319832D01*
X32778463Y18443082D01*
X33046252Y18622013D01*
X33273987Y18849748D01*
X33452918Y19117537D01*
X33576168Y19415088D01*
X33639000Y19730967D01*
X33639000Y20053033D01*
X33576168Y20368912D01*
X33452918Y20666463D01*
X33273987Y20934252D01*
X33046252Y21161987D01*
X32778463Y21340918D01*
X32480912Y21464168D01*
X32165033Y21527000D01*
X31842967Y21527000D01*
X31527088Y21464168D01*
X31229537Y21340918D01*
X30961748Y21161987D01*
X30734013Y20934252D01*
X30555082Y20666463D01*
X30431832Y20368912D01*
X30369000Y20053033D01*
X19780611Y20053033D01*
X27290579Y27563000D01*
X40088531Y27563000D01*
X40132000Y27558719D01*
X40175469Y27563000D01*
X40175477Y27563000D01*
X40305490Y27575805D01*
X40472313Y27626411D01*
X40626059Y27708589D01*
X40760817Y27819183D01*
X40788534Y27852956D01*
X45841507Y32905928D01*
X47180500Y32905928D01*
X47304982Y32918188D01*
X47424680Y32954498D01*
X47534994Y33013463D01*
X47631685Y33092815D01*
X47711037Y33189506D01*
X47770002Y33299820D01*
X47806312Y33419518D01*
X47818572Y33544000D01*
X47818572Y35544000D01*
X47806312Y35668482D01*
X47770002Y35788180D01*
X47711037Y35898494D01*
X47631685Y35995185D01*
X47534994Y36074537D01*
X47424680Y36133502D01*
X47304982Y36169812D01*
X47180500Y36182072D01*
X45275500Y36182072D01*
X45151018Y36169812D01*
X45031320Y36133502D01*
X44921006Y36074537D01*
X44824315Y35995185D01*
X44744963Y35898494D01*
X44685998Y35788180D01*
X44649688Y35668482D01*
X44637428Y35544000D01*
X44637428Y34205007D01*
X39765422Y29333000D01*
X26967469Y29333000D01*
X26924000Y29337281D01*
X26880531Y29333000D01*
X26880523Y29333000D01*
X26750510Y29320195D01*
X26583687Y29269589D01*
X26546453Y29249687D01*
X26429941Y29187411D01*
X26328953Y29104532D01*
X26328951Y29104530D01*
X26295183Y29076817D01*
X26267470Y29043049D01*
X18200952Y20976530D01*
X18167184Y20948817D01*
X18139471Y20915049D01*
X18139468Y20915046D01*
X18056590Y20814059D01*
X18046733Y20795619D01*
X18030000Y20850783D01*
X18030000Y20911535D01*
X18034281Y20955001D01*
X18030000Y20998467D01*
X18030000Y20998477D01*
X18017195Y21128490D01*
X17966589Y21295313D01*
X17884411Y21449059D01*
X17773817Y21583817D01*
X17740049Y21611530D01*
X15490000Y23861578D01*
X15490000Y23891719D01*
X15571255Y23867071D01*
X15725000Y23851928D01*
X16025000Y23851928D01*
X16178745Y23867071D01*
X16326582Y23911916D01*
X16462829Y23984742D01*
X16510000Y24023454D01*
X16557171Y23984742D01*
X16693418Y23911916D01*
X16841255Y23867071D01*
X16995000Y23851928D01*
X17295000Y23851928D01*
X17448745Y23867071D01*
X17596582Y23911916D01*
X17732829Y23984742D01*
X17852251Y24082749D01*
X17950258Y24202171D01*
X18023084Y24338418D01*
X18025738Y24347167D01*
X18062205Y24401744D01*
X18140226Y24590102D01*
X18180000Y24790061D01*
X18180000Y24993939D01*
X18140226Y25193898D01*
X18083072Y25331879D01*
X18083072Y26290000D01*
X18067929Y26443745D01*
X18023084Y26591582D01*
X17950258Y26727829D01*
X17852251Y26847251D01*
X17732829Y26945258D01*
X17596582Y27018084D01*
X17448745Y27062929D01*
X17295000Y27078072D01*
X16995000Y27078072D01*
X16841255Y27062929D01*
X16693418Y27018084D01*
X16557171Y26945258D01*
X16510000Y26906546D01*
X16462829Y26945258D01*
X16326582Y27018084D01*
X16178745Y27062929D01*
X16025000Y27078072D01*
X15725000Y27078072D01*
X15571255Y27062929D01*
X15493122Y27039228D01*
X15494281Y27051000D01*
X15490000Y27094469D01*
X15490000Y27094477D01*
X15477195Y27224490D01*
X15452469Y27306000D01*
X19972928Y27306000D01*
X19972928Y26806000D01*
X19989992Y26632746D01*
X20040528Y26466150D01*
X20122595Y26312614D01*
X20233038Y26178038D01*
X20367614Y26067595D01*
X20521150Y25985528D01*
X20687746Y25934992D01*
X20861000Y25917928D01*
X21811000Y25917928D01*
X21984254Y25934992D01*
X22150850Y25985528D01*
X22304386Y26067595D01*
X22438962Y26178038D01*
X22549405Y26312614D01*
X22631472Y26466150D01*
X22682008Y26632746D01*
X22699072Y26806000D01*
X22699072Y27306000D01*
X22682008Y27479254D01*
X22631472Y27645850D01*
X22549405Y27799386D01*
X22438962Y27933962D01*
X22304386Y28044405D01*
X22150850Y28126472D01*
X21984254Y28177008D01*
X21811000Y28194072D01*
X20861000Y28194072D01*
X20687746Y28177008D01*
X20521150Y28126472D01*
X20367614Y28044405D01*
X20233038Y27933962D01*
X20122595Y27799386D01*
X20040528Y27645850D01*
X19989992Y27479254D01*
X19972928Y27306000D01*
X15452469Y27306000D01*
X15426589Y27391313D01*
X15344411Y27545059D01*
X15329687Y27563000D01*
X18244531Y27563000D01*
X18288000Y27558719D01*
X18331469Y27563000D01*
X18331477Y27563000D01*
X18461490Y27575805D01*
X18628313Y27626411D01*
X18782059Y27708589D01*
X18916817Y27819183D01*
X18944534Y27852956D01*
X19899050Y28807471D01*
X19932817Y28835183D01*
X20043411Y28969941D01*
X20125589Y29123687D01*
X20169849Y29269589D01*
X20176195Y29290509D01*
X20180801Y29337281D01*
X20189000Y29420523D01*
X20189000Y29420531D01*
X20193281Y29464000D01*
X20189000Y29507469D01*
X20189000Y30113422D01*
X23734579Y33659000D01*
X28381428Y33659000D01*
X28381428Y33544000D01*
X28393688Y33419518D01*
X28429998Y33299820D01*
X28488963Y33189506D01*
X28568315Y33092815D01*
X28665006Y33013463D01*
X28775320Y32954498D01*
X28895018Y32918188D01*
X29019500Y32905928D01*
X30924500Y32905928D01*
X31048982Y32918188D01*
X31168680Y32954498D01*
X31278994Y33013463D01*
X31375685Y33092815D01*
X31455037Y33189506D01*
X31514002Y33299820D01*
X31550312Y33419518D01*
X31562572Y33544000D01*
X31562572Y34669485D01*
X33464500Y34669485D01*
X33464500Y34418514D01*
X33487470Y34185296D01*
X33578245Y33886051D01*
X33725655Y33610265D01*
X33924037Y33368537D01*
X34165766Y33170155D01*
X34441552Y33022745D01*
X34740797Y32931970D01*
X35052000Y32901319D01*
X35363204Y32931970D01*
X35662449Y33022745D01*
X35938235Y33170155D01*
X36179963Y33368537D01*
X36378345Y33610266D01*
X36525755Y33886052D01*
X36616530Y34185297D01*
X36639500Y34418515D01*
X36639500Y34669486D01*
X36616530Y34902704D01*
X36525755Y35201949D01*
X36378345Y35477735D01*
X36179963Y35719463D01*
X35938234Y35917845D01*
X35662448Y36065255D01*
X35363203Y36156030D01*
X35052000Y36186681D01*
X34740796Y36156030D01*
X34441551Y36065255D01*
X34165765Y35917845D01*
X33924037Y35719463D01*
X33725655Y35477734D01*
X33578245Y35201948D01*
X33487470Y34902703D01*
X33464500Y34669485D01*
X31562572Y34669485D01*
X31562572Y35544000D01*
X31550312Y35668482D01*
X31514002Y35788180D01*
X31455037Y35898494D01*
X31375685Y35995185D01*
X31278994Y36074537D01*
X31168680Y36133502D01*
X31048982Y36169812D01*
X30924500Y36182072D01*
X29019500Y36182072D01*
X28895018Y36169812D01*
X28775320Y36133502D01*
X28665006Y36074537D01*
X28568315Y35995185D01*
X28488963Y35898494D01*
X28429998Y35788180D01*
X28393688Y35668482D01*
X28381428Y35544000D01*
X28381428Y35429000D01*
X23411469Y35429000D01*
X23368000Y35433281D01*
X23324531Y35429000D01*
X23324523Y35429000D01*
X23209306Y35417652D01*
X23194509Y35416195D01*
X23143903Y35400843D01*
X23027687Y35365589D01*
X22873941Y35283411D01*
X22772953Y35200532D01*
X22772951Y35200530D01*
X22739183Y35172817D01*
X22711470Y35139049D01*
X18708951Y31136530D01*
X18675184Y31108817D01*
X18647471Y31075049D01*
X18647468Y31075046D01*
X18564590Y30974059D01*
X18482412Y30820313D01*
X18431805Y30653490D01*
X18414719Y30480000D01*
X18419001Y30436522D01*
X18419000Y29830579D01*
X17921422Y29333000D01*
X16766608Y29333000D01*
X16797929Y29436255D01*
X16813072Y29590000D01*
X16813072Y31240000D01*
X16797929Y31393745D01*
X16760000Y31518783D01*
X16760000Y33845976D01*
X16811405Y33908613D01*
X16893472Y34062149D01*
X16944008Y34228745D01*
X16961072Y34401999D01*
X16961072Y35702001D01*
X16944008Y35875255D01*
X16893472Y36041851D01*
X16811405Y36195387D01*
X16700962Y36329962D01*
X16566387Y36440405D01*
X16412851Y36522472D01*
X16246255Y36573008D01*
X16073001Y36590072D01*
X15422999Y36590072D01*
X15249745Y36573008D01*
X15083149Y36522472D01*
X14929613Y36440405D01*
X14795038Y36329962D01*
X14684595Y36195387D01*
X14602528Y36041851D01*
X14551992Y35875255D01*
X14534928Y35702001D01*
X14534928Y34401999D01*
X14551992Y34228745D01*
X14602528Y34062149D01*
X14684595Y33908613D01*
X14795038Y33774038D01*
X14929613Y33663595D01*
X14990001Y33631317D01*
X14990000Y31988281D01*
X14908745Y32012929D01*
X14755000Y32028072D01*
X14455000Y32028072D01*
X14301255Y32012929D01*
X14220000Y31988281D01*
X14220000Y34471531D01*
X14224281Y34515000D01*
X14220000Y34558469D01*
X14220000Y34558477D01*
X14207195Y34688490D01*
X14188505Y34750102D01*
X14156589Y34855314D01*
X14074411Y35009059D01*
X14011072Y35086237D01*
X14011072Y35702001D01*
X13994008Y35875255D01*
X13943472Y36041851D01*
X13861405Y36195387D01*
X13750962Y36329962D01*
X13616387Y36440405D01*
X13462851Y36522472D01*
X13296255Y36573008D01*
X13123001Y36590072D01*
X12472999Y36590072D01*
X12299745Y36573008D01*
X12133149Y36522472D01*
X11979613Y36440405D01*
X11845038Y36329962D01*
X11734595Y36195387D01*
X11652528Y36041851D01*
X11601992Y35875255D01*
X11584928Y35702001D01*
X11584928Y34401999D01*
X11601992Y34228745D01*
X11652528Y34062149D01*
X11734595Y33908613D01*
X11845038Y33774038D01*
X11979613Y33663595D01*
X12133149Y33581528D01*
X12299745Y33530992D01*
X12450001Y33516193D01*
X12450000Y31518783D01*
X12412071Y31393745D01*
X12396928Y31240000D01*
X12396928Y30728507D01*
X12144422Y30476000D01*
X10715647Y30476000D01*
X10703185Y30491185D01*
X10606494Y30570537D01*
X10496180Y30629502D01*
X10376482Y30665812D01*
X10252000Y30678072D01*
X9052000Y30678072D01*
X8927518Y30665812D01*
X8807820Y30629502D01*
X8697506Y30570537D01*
X8600815Y30491185D01*
X8521463Y30394494D01*
X8462498Y30284180D01*
X8426188Y30164482D01*
X8413928Y30040000D01*
X8413928Y29140000D01*
X8426188Y29015518D01*
X8462498Y28895820D01*
X8521463Y28785506D01*
X8600815Y28688815D01*
X8697506Y28609463D01*
X8807820Y28550498D01*
X8927518Y28514188D01*
X9052000Y28501928D01*
X10252000Y28501928D01*
X10376482Y28514188D01*
X10496180Y28550498D01*
X10606494Y28609463D01*
X10703185Y28688815D01*
X10717288Y28706000D01*
X12255686Y28706000D01*
X12205941Y28679411D01*
X12205939Y28679410D01*
X12205940Y28679410D01*
X12104953Y28596532D01*
X12104951Y28596530D01*
X12071183Y28568817D01*
X12043470Y28535049D01*
X11088956Y27580534D01*
X11055183Y27552817D01*
X10944589Y27418058D01*
X10862411Y27264312D01*
X10811805Y27097489D01*
X10799000Y26967476D01*
X10799000Y26967469D01*
X10794719Y26924000D01*
X10799000Y26880530D01*
X10799001Y25777000D01*
X10711469Y25777000D01*
X10668000Y25781281D01*
X10624531Y25777000D01*
X10624523Y25777000D01*
X10494510Y25764195D01*
X10327687Y25713589D01*
X10187185Y25638490D01*
X10173941Y25631411D01*
X10072953Y25548532D01*
X10072951Y25548530D01*
X10039183Y25520817D01*
X10011470Y25487049D01*
X4028072Y19503650D01*
X4028072Y21170000D01*
X4015812Y21294482D01*
X3979502Y21414180D01*
X3920537Y21524494D01*
X3841185Y21621185D01*
X3744494Y21700537D01*
X3634180Y21759502D01*
X3514482Y21795812D01*
X3390000Y21808072D01*
X1690000Y21808072D01*
X1565518Y21795812D01*
X1445820Y21759502D01*
X1335506Y21700537D01*
X1238815Y21621185D01*
X1159463Y21524494D01*
X1100498Y21414180D01*
X1064188Y21294482D01*
X1051928Y21170000D01*
X127000Y21170000D01*
X127000Y28014600D01*
X463000Y28014600D01*
X463000Y27505400D01*
X562340Y27005983D01*
X757202Y26535543D01*
X1040099Y26112158D01*
X1400158Y25752099D01*
X1823543Y25469202D01*
X2293983Y25274340D01*
X2793400Y25175000D01*
X3302600Y25175000D01*
X3802017Y25274340D01*
X4272457Y25469202D01*
X4695842Y25752099D01*
X5055901Y26112158D01*
X5338798Y26535543D01*
X5533660Y27005983D01*
X5633000Y27505400D01*
X5633000Y28014600D01*
X5533660Y28514017D01*
X5338798Y28984457D01*
X5055901Y29407842D01*
X4695842Y29767901D01*
X4272457Y30050798D01*
X3802017Y30245660D01*
X3302600Y30345000D01*
X2793400Y30345000D01*
X2293983Y30245660D01*
X1823543Y30050798D01*
X1400158Y29767901D01*
X1040099Y29407842D01*
X757202Y28984457D01*
X562340Y28514017D01*
X463000Y28014600D01*
X127000Y28014600D01*
X127000Y32105939D01*
X8617000Y32105939D01*
X8617000Y31902061D01*
X8656774Y31702102D01*
X8734795Y31513744D01*
X8848063Y31344226D01*
X8992226Y31200063D01*
X9026875Y31176912D01*
X9072506Y31139463D01*
X9124570Y31111634D01*
X9161744Y31086795D01*
X9350102Y31008774D01*
X9550061Y30969000D01*
X9753939Y30969000D01*
X9953898Y31008774D01*
X10142256Y31086795D01*
X10179430Y31111634D01*
X10231494Y31139463D01*
X10277125Y31176912D01*
X10311774Y31200063D01*
X10455937Y31344226D01*
X10569205Y31513744D01*
X10647226Y31702102D01*
X10687000Y31902061D01*
X10687000Y32105939D01*
X10647226Y32305898D01*
X10569205Y32494256D01*
X10455937Y32663774D01*
X10311774Y32807937D01*
X10142256Y32921205D01*
X9953898Y32999226D01*
X9753939Y33039000D01*
X9550061Y33039000D01*
X9350102Y32999226D01*
X9161744Y32921205D01*
X8992226Y32807937D01*
X8848063Y32663774D01*
X8734795Y32494256D01*
X8656774Y32305898D01*
X8617000Y32105939D01*
X127000Y32105939D01*
X127000Y45085000D01*
X57277000Y45085000D01*
X57277000Y28089479D01*
%TA.AperFunction,Conductor*%
D23*
G36*
X57277000Y28089479D02*
G01*
X57091505Y28315505D01*
X56614140Y28707269D01*
X56069517Y28998376D01*
X55478567Y29177638D01*
X55018002Y29223000D01*
X51602968Y29223000D01*
X54308669Y32074955D01*
X54376352Y32159765D01*
X54434917Y32269610D01*
X54470928Y32388769D01*
X54483000Y32512664D01*
X54470669Y32636534D01*
X54434409Y32755618D01*
X54375614Y32865339D01*
X54296543Y32961482D01*
X54200235Y33040352D01*
X52959000Y33867842D01*
X52959000Y35560000D01*
X52946799Y35683882D01*
X52910664Y35803004D01*
X52851983Y35912787D01*
X52773013Y36009013D01*
X52676787Y36087983D01*
X52567004Y36146664D01*
X52447882Y36182799D01*
X52324000Y36195000D01*
X50292000Y36195000D01*
X50168118Y36182799D01*
X50048996Y36146664D01*
X49939213Y36087983D01*
X49842987Y36009013D01*
X49764017Y35912787D01*
X49705336Y35803004D01*
X49669201Y35683882D01*
X49657000Y35560000D01*
X49657000Y33867842D01*
X48415765Y33040352D01*
X48307331Y32949045D01*
X44231114Y28652492D01*
X43820495Y28315505D01*
X43428731Y27838140D01*
X43390285Y27766213D01*
X29511331Y13137045D01*
X29443648Y13052235D01*
X29385083Y12942390D01*
X29349072Y12823231D01*
X29337000Y12699336D01*
X29349331Y12575466D01*
X29385591Y12456382D01*
X29444386Y12346661D01*
X29523457Y12250518D01*
X29534283Y12241652D01*
X29361552Y12189255D01*
X29085766Y12041845D01*
X28844037Y11843463D01*
X28645655Y11601735D01*
X28498245Y11325949D01*
X28407470Y11026704D01*
X28384500Y10793486D01*
X28384500Y10542515D01*
X28407470Y10309297D01*
X28498245Y10010052D01*
X28645655Y9734266D01*
X28844037Y9492537D01*
X29085765Y9294155D01*
X29361551Y9146745D01*
X29660796Y9055970D01*
X29972000Y9025319D01*
X30283203Y9055970D01*
X30582448Y9146745D01*
X30858234Y9294155D01*
X30936422Y9358322D01*
X30968017Y9299213D01*
X31046987Y9202987D01*
X31143213Y9124017D01*
X31252996Y9065336D01*
X31372118Y9029201D01*
X31496000Y9017000D01*
X33528000Y9017000D01*
X33651882Y9029201D01*
X33771004Y9065336D01*
X33825474Y9094451D01*
X33855320Y9078498D01*
X33975018Y9042188D01*
X34099500Y9029928D01*
X36004500Y9029928D01*
X36128982Y9042188D01*
X36248680Y9078498D01*
X36358994Y9137463D01*
X36455685Y9216815D01*
X36535037Y9313506D01*
X36594002Y9423820D01*
X36630312Y9543518D01*
X36642572Y9668000D01*
X36642572Y11668000D01*
X36630312Y11792482D01*
X36594002Y11912180D01*
X36535037Y12022494D01*
X36455685Y12119185D01*
X36358994Y12198537D01*
X36248680Y12257502D01*
X36128982Y12293812D01*
X36004500Y12306072D01*
X35553575Y12306072D01*
X38433756Y15341939D01*
X39605000Y15341939D01*
X39605000Y15138061D01*
X39644774Y14938102D01*
X39722795Y14749744D01*
X39836063Y14580226D01*
X39980226Y14436063D01*
X40149744Y14322795D01*
X40338102Y14244774D01*
X40394957Y14233465D01*
X41507470Y13120951D01*
X41535183Y13087183D01*
X41568951Y13059470D01*
X41568953Y13059468D01*
X41640452Y13000790D01*
X41669941Y12976589D01*
X41823687Y12894411D01*
X41990510Y12843805D01*
X42120523Y12831000D01*
X42120533Y12831000D01*
X42163999Y12826719D01*
X42207465Y12831000D01*
X48909422Y12831000D01*
X49787679Y11952742D01*
X49780095Y11938554D01*
X49654235Y12041845D01*
X49378449Y12189255D01*
X49079204Y12280030D01*
X48768000Y12310681D01*
X48456797Y12280030D01*
X48157552Y12189255D01*
X47881766Y12041845D01*
X47640037Y11843463D01*
X47498000Y11670391D01*
X47355963Y11843463D01*
X47114235Y12041845D01*
X46838449Y12189255D01*
X46539204Y12280030D01*
X46228000Y12310681D01*
X45916797Y12280030D01*
X45617552Y12189255D01*
X45341766Y12041845D01*
X45100037Y11843463D01*
X44901655Y11601735D01*
X44754245Y11325949D01*
X44663470Y11026704D01*
X44640500Y10793486D01*
X44640500Y10542515D01*
X44663470Y10309297D01*
X44754245Y10010052D01*
X44901655Y9734266D01*
X45100037Y9492537D01*
X45341765Y9294155D01*
X45617551Y9146745D01*
X45916796Y9055970D01*
X46228000Y9025319D01*
X46539203Y9055970D01*
X46838448Y9146745D01*
X47114234Y9294155D01*
X47355963Y9492537D01*
X47498000Y9665609D01*
X47640037Y9492537D01*
X47881765Y9294155D01*
X48157551Y9146745D01*
X48456796Y9055970D01*
X48768000Y9025319D01*
X49079203Y9055970D01*
X49378448Y9146745D01*
X49654234Y9294155D01*
X49780095Y9397447D01*
X49824963Y9313506D01*
X49904315Y9216815D01*
X50001006Y9137463D01*
X50111320Y9078498D01*
X50231018Y9042188D01*
X50355500Y9029928D01*
X52260500Y9029928D01*
X52384982Y9042188D01*
X52504680Y9078498D01*
X52614994Y9137463D01*
X52711685Y9216815D01*
X52791037Y9313506D01*
X52850002Y9423820D01*
X52886312Y9543518D01*
X52898572Y9668000D01*
X52898572Y11668000D01*
X52886312Y11792482D01*
X52850002Y11912180D01*
X52791037Y12022494D01*
X52711685Y12119185D01*
X52614994Y12198537D01*
X52504680Y12257502D01*
X52384982Y12293812D01*
X52260500Y12306072D01*
X51942353Y12306072D01*
X51936817Y12312817D01*
X51903049Y12340530D01*
X49932534Y14311044D01*
X49904817Y14344817D01*
X49770059Y14455411D01*
X49616313Y14537589D01*
X49449490Y14588195D01*
X49319477Y14601000D01*
X49319469Y14601000D01*
X49276000Y14605281D01*
X49232531Y14601000D01*
X42530579Y14601000D01*
X41646535Y15485043D01*
X41635226Y15541898D01*
X41557205Y15730256D01*
X41443937Y15899774D01*
X41299774Y16043937D01*
X41130256Y16157205D01*
X40941898Y16235226D01*
X40741939Y16275000D01*
X40538061Y16275000D01*
X40338102Y16235226D01*
X40149744Y16157205D01*
X39980226Y16043937D01*
X39836063Y15899774D01*
X39722795Y15730256D01*
X39644774Y15541898D01*
X39605000Y15341939D01*
X38433756Y15341939D01*
X43934958Y21140503D01*
X47762928Y21140503D01*
X47762928Y20515497D01*
X47779992Y20342243D01*
X47830528Y20175648D01*
X47912595Y20022112D01*
X48023037Y19887537D01*
X48157612Y19777095D01*
X48311148Y19695028D01*
X48477743Y19644492D01*
X48488895Y19643394D01*
X48616226Y19516063D01*
X48785744Y19402795D01*
X48974102Y19324774D01*
X49174061Y19285000D01*
X49377939Y19285000D01*
X49577898Y19324774D01*
X49766256Y19402795D01*
X49935774Y19516063D01*
X50063105Y19643394D01*
X50074257Y19644492D01*
X50240852Y19695028D01*
X50394388Y19777095D01*
X50528963Y19887537D01*
X50639405Y20022112D01*
X50721472Y20175648D01*
X50772008Y20342243D01*
X50789072Y20515497D01*
X50789072Y21140503D01*
X50772008Y21313757D01*
X50721472Y21480352D01*
X50639405Y21633888D01*
X50528963Y21768463D01*
X50394388Y21878905D01*
X50240852Y21960972D01*
X50074257Y22011508D01*
X49901003Y22028572D01*
X48650997Y22028572D01*
X48477743Y22011508D01*
X48311148Y21960972D01*
X48157612Y21878905D01*
X48023037Y21768463D01*
X47912595Y21633888D01*
X47830528Y21480352D01*
X47779992Y21313757D01*
X47762928Y21140503D01*
X43934958Y21140503D01*
X45674973Y22974572D01*
X45893998Y22953000D01*
X47909448Y22953000D01*
X47912595Y22947112D01*
X48023037Y22812537D01*
X48157612Y22702095D01*
X48311148Y22620028D01*
X48477743Y22569492D01*
X48650997Y22552428D01*
X49901003Y22552428D01*
X50074257Y22569492D01*
X50240852Y22620028D01*
X50394388Y22702095D01*
X50528963Y22812537D01*
X50639405Y22947112D01*
X50642552Y22953000D01*
X55018002Y22953000D01*
X55478567Y22998362D01*
X56069517Y23177624D01*
X56614140Y23468731D01*
X57091505Y23860495D01*
X57277000Y24086521D01*
X57277000Y20512342D01*
X57191961Y20615961D01*
X57057386Y20726405D01*
X56903850Y20808471D01*
X56737253Y20859008D01*
X56563999Y20876072D01*
X53164001Y20876072D01*
X52990747Y20859008D01*
X52824150Y20808471D01*
X52670614Y20726405D01*
X52536039Y20615961D01*
X52425595Y20481386D01*
X52343529Y20327850D01*
X52292992Y20161253D01*
X52275928Y19987999D01*
X52275928Y16588001D01*
X52292992Y16414747D01*
X52343529Y16248150D01*
X52425595Y16094614D01*
X52536039Y15960039D01*
X52670614Y15849595D01*
X52824150Y15767529D01*
X52990747Y15716992D01*
X53164001Y15699928D01*
X56563999Y15699928D01*
X56737253Y15716992D01*
X56903850Y15767529D01*
X57057386Y15849595D01*
X57191961Y15960039D01*
X57277000Y16063658D01*
X57277000Y127000D01*
X127000Y127000D01*
X127000Y21170000D01*
X1051928Y21170000D01*
X1051928Y19470000D01*
X1064188Y19345518D01*
X1100498Y19225820D01*
X1159463Y19115506D01*
X1238815Y19018815D01*
X1335506Y18939463D01*
X1445820Y18880498D01*
X1518380Y18858487D01*
X1386525Y18726632D01*
X1224010Y18483411D01*
X1112068Y18213158D01*
X1055000Y17926260D01*
X1055000Y17633740D01*
X1112068Y17346842D01*
X1224010Y17076589D01*
X1386525Y16833368D01*
X1593368Y16626525D01*
X1767760Y16510000D01*
X1593368Y16393475D01*
X1386525Y16186632D01*
X1224010Y15943411D01*
X1112068Y15673158D01*
X1055000Y15386260D01*
X1055000Y15093740D01*
X1112068Y14806842D01*
X1224010Y14536589D01*
X1386525Y14293368D01*
X1593368Y14086525D01*
X1836589Y13924010D01*
X2106842Y13812068D01*
X2393740Y13755000D01*
X2686260Y13755000D01*
X2973158Y13812068D01*
X3243411Y13924010D01*
X3486632Y14086525D01*
X3693475Y14293368D01*
X3855990Y14536589D01*
X3967932Y14806842D01*
X3993138Y14933560D01*
X7838556Y18778978D01*
X7797992Y18645254D01*
X7780928Y18472000D01*
X7780928Y17972000D01*
X7797992Y17798746D01*
X7848528Y17632150D01*
X7930595Y17478614D01*
X8041038Y17344038D01*
X8175614Y17233595D01*
X8329150Y17151528D01*
X8495746Y17100992D01*
X8669000Y17083928D01*
X9619000Y17083928D01*
X9792254Y17100992D01*
X9958850Y17151528D01*
X10112386Y17233595D01*
X10246962Y17344038D01*
X10357405Y17478614D01*
X10439472Y17632150D01*
X10490008Y17798746D01*
X10507072Y17972000D01*
X10507072Y18472000D01*
X10490008Y18645254D01*
X10439472Y18811850D01*
X10357405Y18965386D01*
X10246962Y19099962D01*
X10112386Y19210405D01*
X9958850Y19292472D01*
X9792254Y19343008D01*
X9619000Y19360072D01*
X8669000Y19360072D01*
X8495746Y19343008D01*
X8362022Y19302444D01*
X11436579Y22377000D01*
X12968422Y22377000D01*
X14082985Y21262437D01*
X14017171Y21227258D01*
X13970000Y21188546D01*
X13922829Y21227258D01*
X13786582Y21300084D01*
X13638745Y21344929D01*
X13485000Y21360072D01*
X13185000Y21360072D01*
X13031255Y21344929D01*
X12883418Y21300084D01*
X12747171Y21227258D01*
X12627749Y21129251D01*
X12529742Y21009829D01*
X12456916Y20873582D01*
X12412071Y20725745D01*
X12396928Y20572000D01*
X12396928Y19616879D01*
X12339774Y19478898D01*
X12300000Y19278939D01*
X12300000Y19075061D01*
X12339774Y18875102D01*
X12417795Y18686744D01*
X12452595Y18634661D01*
X12456916Y18620418D01*
X12529742Y18484171D01*
X12627749Y18364749D01*
X12747171Y18266742D01*
X12883418Y18193916D01*
X13031255Y18149071D01*
X13185000Y18133928D01*
X13485000Y18133928D01*
X13638745Y18149071D01*
X13786582Y18193916D01*
X13922829Y18266742D01*
X13970000Y18305454D01*
X14017171Y18266742D01*
X14153418Y18193916D01*
X14301255Y18149071D01*
X14455000Y18133928D01*
X14755000Y18133928D01*
X14908745Y18149071D01*
X15056582Y18193916D01*
X15192829Y18266742D01*
X15240000Y18305454D01*
X15287171Y18266742D01*
X15423418Y18193916D01*
X15571255Y18149071D01*
X15725000Y18133928D01*
X16025000Y18133928D01*
X16178745Y18149071D01*
X16326582Y18193916D01*
X16462829Y18266742D01*
X16510000Y18305454D01*
X16557171Y18266742D01*
X16693418Y18193916D01*
X16815116Y18157000D01*
X16537009Y18157000D01*
X16493543Y18161281D01*
X16450077Y18157000D01*
X16450067Y18157000D01*
X16320054Y18144195D01*
X16153231Y18093589D01*
X15999485Y18011411D01*
X15999483Y18011410D01*
X15999484Y18011410D01*
X15898497Y17928532D01*
X15898495Y17928530D01*
X15864727Y17900817D01*
X15837014Y17867049D01*
X15279951Y17309985D01*
X15246184Y17282273D01*
X15218471Y17248505D01*
X15218468Y17248502D01*
X15135590Y17147515D01*
X15053412Y16993769D01*
X15002805Y16826946D01*
X14985719Y16653456D01*
X14990001Y16609977D01*
X14990001Y16370281D01*
X14908745Y16394929D01*
X14755000Y16410072D01*
X14455000Y16410072D01*
X14301255Y16394929D01*
X14153418Y16350084D01*
X14017171Y16277258D01*
X13897749Y16179251D01*
X13799742Y16059829D01*
X13726916Y15923582D01*
X13682071Y15775745D01*
X13666928Y15622000D01*
X13666928Y13972000D01*
X13682071Y13818255D01*
X13720000Y13693217D01*
X13720001Y11306318D01*
X13717595Y11303387D01*
X13635528Y11149851D01*
X13584992Y10983255D01*
X13567928Y10810001D01*
X13567928Y9509999D01*
X13584992Y9336745D01*
X13635528Y9170149D01*
X13717595Y9016613D01*
X13828038Y8882038D01*
X13962613Y8771595D01*
X14116149Y8689528D01*
X14282745Y8638992D01*
X14455999Y8621928D01*
X15106001Y8621928D01*
X15279255Y8638992D01*
X15445851Y8689528D01*
X15599387Y8771595D01*
X15733962Y8882038D01*
X15844405Y9016613D01*
X15926472Y9170149D01*
X15977008Y9336745D01*
X15994072Y9509999D01*
X15994072Y10810001D01*
X15977008Y10983255D01*
X15926472Y11149851D01*
X15844405Y11303387D01*
X15733962Y11437962D01*
X15599387Y11548405D01*
X15490000Y11606874D01*
X15490000Y13223719D01*
X15571255Y13199071D01*
X15725000Y13183928D01*
X16025000Y13183928D01*
X16178745Y13199071D01*
X16326582Y13243916D01*
X16462829Y13316742D01*
X16510000Y13355454D01*
X16557171Y13316742D01*
X16693418Y13243916D01*
X16841255Y13199071D01*
X16846001Y13198604D01*
X16846000Y11493737D01*
X16778038Y11437962D01*
X16667595Y11303387D01*
X16585528Y11149851D01*
X16534992Y10983255D01*
X16517928Y10810001D01*
X16517928Y9509999D01*
X16534992Y9336745D01*
X16585528Y9170149D01*
X16667595Y9016613D01*
X16778038Y8882038D01*
X16912613Y8771595D01*
X17066149Y8689528D01*
X17232745Y8638992D01*
X17405999Y8621928D01*
X18056001Y8621928D01*
X18229255Y8638992D01*
X18395851Y8689528D01*
X18549387Y8771595D01*
X18683962Y8882038D01*
X18794405Y9016613D01*
X18876472Y9170149D01*
X18927008Y9336745D01*
X18944072Y9509999D01*
X18944072Y10810001D01*
X18927008Y10983255D01*
X18876472Y11149851D01*
X18794405Y11303387D01*
X18683962Y11437962D01*
X18616000Y11493737D01*
X18616000Y14167535D01*
X18620281Y14211001D01*
X18616000Y14254467D01*
X18616000Y14254477D01*
X18603195Y14384490D01*
X18552589Y14551313D01*
X18470411Y14705059D01*
X18444197Y14737000D01*
X19763532Y14737000D01*
X19776815Y14720815D01*
X19873506Y14641463D01*
X19983820Y14582498D01*
X20103518Y14546188D01*
X20228000Y14533928D01*
X21428000Y14533928D01*
X21552482Y14546188D01*
X21672180Y14582498D01*
X21782494Y14641463D01*
X21879185Y14720815D01*
X21958537Y14817506D01*
X22017502Y14927820D01*
X22053812Y15047518D01*
X22066072Y15172000D01*
X22066072Y16072000D01*
X22053812Y16196482D01*
X22017502Y16316180D01*
X21958537Y16426494D01*
X21879185Y16523185D01*
X21782494Y16602537D01*
X21672180Y16661502D01*
X21552482Y16697812D01*
X21428000Y16710072D01*
X20228000Y16710072D01*
X20103518Y16697812D01*
X19983820Y16661502D01*
X19873506Y16602537D01*
X19776815Y16523185D01*
X19763532Y16507000D01*
X18226185Y16507000D01*
X18274059Y16532589D01*
X18408817Y16643183D01*
X18436534Y16676956D01*
X19391050Y17631471D01*
X19424817Y17659183D01*
X19535411Y17793941D01*
X19617589Y17947687D01*
X19668195Y18114510D01*
X19681000Y18244523D01*
X19681000Y18244531D01*
X19685281Y18288000D01*
X19681000Y18331469D01*
X19681000Y19953422D01*
X19780611Y20053033D01*
X30369000Y20053033D01*
X30369000Y19730967D01*
X30431832Y19415088D01*
X30555082Y19117537D01*
X30734013Y18849748D01*
X30961748Y18622013D01*
X31229537Y18443082D01*
X31527088Y18319832D01*
X31842967Y18257000D01*
X32165033Y18257000D01*
X32480912Y18319832D01*
X32778463Y18443082D01*
X33046252Y18622013D01*
X33273987Y18849748D01*
X33452918Y19117537D01*
X33576168Y19415088D01*
X33639000Y19730967D01*
X33639000Y20053033D01*
X33576168Y20368912D01*
X33452918Y20666463D01*
X33273987Y20934252D01*
X33046252Y21161987D01*
X32778463Y21340918D01*
X32480912Y21464168D01*
X32165033Y21527000D01*
X31842967Y21527000D01*
X31527088Y21464168D01*
X31229537Y21340918D01*
X30961748Y21161987D01*
X30734013Y20934252D01*
X30555082Y20666463D01*
X30431832Y20368912D01*
X30369000Y20053033D01*
X19780611Y20053033D01*
X27290579Y27563000D01*
X40088531Y27563000D01*
X40132000Y27558719D01*
X40175469Y27563000D01*
X40175477Y27563000D01*
X40305490Y27575805D01*
X40472313Y27626411D01*
X40626059Y27708589D01*
X40760817Y27819183D01*
X40788534Y27852956D01*
X45841507Y32905928D01*
X47180500Y32905928D01*
X47304982Y32918188D01*
X47424680Y32954498D01*
X47534994Y33013463D01*
X47631685Y33092815D01*
X47711037Y33189506D01*
X47770002Y33299820D01*
X47806312Y33419518D01*
X47818572Y33544000D01*
X47818572Y35544000D01*
X47806312Y35668482D01*
X47770002Y35788180D01*
X47711037Y35898494D01*
X47631685Y35995185D01*
X47534994Y36074537D01*
X47424680Y36133502D01*
X47304982Y36169812D01*
X47180500Y36182072D01*
X45275500Y36182072D01*
X45151018Y36169812D01*
X45031320Y36133502D01*
X44921006Y36074537D01*
X44824315Y35995185D01*
X44744963Y35898494D01*
X44685998Y35788180D01*
X44649688Y35668482D01*
X44637428Y35544000D01*
X44637428Y34205007D01*
X39765422Y29333000D01*
X26967469Y29333000D01*
X26924000Y29337281D01*
X26880531Y29333000D01*
X26880523Y29333000D01*
X26750510Y29320195D01*
X26583687Y29269589D01*
X26546453Y29249687D01*
X26429941Y29187411D01*
X26328953Y29104532D01*
X26328951Y29104530D01*
X26295183Y29076817D01*
X26267470Y29043049D01*
X18200952Y20976530D01*
X18167184Y20948817D01*
X18139471Y20915049D01*
X18139468Y20915046D01*
X18056590Y20814059D01*
X18046733Y20795619D01*
X18030000Y20850783D01*
X18030000Y20911535D01*
X18034281Y20955001D01*
X18030000Y20998467D01*
X18030000Y20998477D01*
X18017195Y21128490D01*
X17966589Y21295313D01*
X17884411Y21449059D01*
X17773817Y21583817D01*
X17740049Y21611530D01*
X15490000Y23861578D01*
X15490000Y23891719D01*
X15571255Y23867071D01*
X15725000Y23851928D01*
X16025000Y23851928D01*
X16178745Y23867071D01*
X16326582Y23911916D01*
X16462829Y23984742D01*
X16510000Y24023454D01*
X16557171Y23984742D01*
X16693418Y23911916D01*
X16841255Y23867071D01*
X16995000Y23851928D01*
X17295000Y23851928D01*
X17448745Y23867071D01*
X17596582Y23911916D01*
X17732829Y23984742D01*
X17852251Y24082749D01*
X17950258Y24202171D01*
X18023084Y24338418D01*
X18025738Y24347167D01*
X18062205Y24401744D01*
X18140226Y24590102D01*
X18180000Y24790061D01*
X18180000Y24993939D01*
X18140226Y25193898D01*
X18083072Y25331879D01*
X18083072Y26290000D01*
X18067929Y26443745D01*
X18023084Y26591582D01*
X17950258Y26727829D01*
X17852251Y26847251D01*
X17732829Y26945258D01*
X17596582Y27018084D01*
X17448745Y27062929D01*
X17295000Y27078072D01*
X16995000Y27078072D01*
X16841255Y27062929D01*
X16693418Y27018084D01*
X16557171Y26945258D01*
X16510000Y26906546D01*
X16462829Y26945258D01*
X16326582Y27018084D01*
X16178745Y27062929D01*
X16025000Y27078072D01*
X15725000Y27078072D01*
X15571255Y27062929D01*
X15493122Y27039228D01*
X15494281Y27051000D01*
X15490000Y27094469D01*
X15490000Y27094477D01*
X15477195Y27224490D01*
X15452469Y27306000D01*
X19972928Y27306000D01*
X19972928Y26806000D01*
X19989992Y26632746D01*
X20040528Y26466150D01*
X20122595Y26312614D01*
X20233038Y26178038D01*
X20367614Y26067595D01*
X20521150Y25985528D01*
X20687746Y25934992D01*
X20861000Y25917928D01*
X21811000Y25917928D01*
X21984254Y25934992D01*
X22150850Y25985528D01*
X22304386Y26067595D01*
X22438962Y26178038D01*
X22549405Y26312614D01*
X22631472Y26466150D01*
X22682008Y26632746D01*
X22699072Y26806000D01*
X22699072Y27306000D01*
X22682008Y27479254D01*
X22631472Y27645850D01*
X22549405Y27799386D01*
X22438962Y27933962D01*
X22304386Y28044405D01*
X22150850Y28126472D01*
X21984254Y28177008D01*
X21811000Y28194072D01*
X20861000Y28194072D01*
X20687746Y28177008D01*
X20521150Y28126472D01*
X20367614Y28044405D01*
X20233038Y27933962D01*
X20122595Y27799386D01*
X20040528Y27645850D01*
X19989992Y27479254D01*
X19972928Y27306000D01*
X15452469Y27306000D01*
X15426589Y27391313D01*
X15344411Y27545059D01*
X15329687Y27563000D01*
X18244531Y27563000D01*
X18288000Y27558719D01*
X18331469Y27563000D01*
X18331477Y27563000D01*
X18461490Y27575805D01*
X18628313Y27626411D01*
X18782059Y27708589D01*
X18916817Y27819183D01*
X18944534Y27852956D01*
X19899050Y28807471D01*
X19932817Y28835183D01*
X20043411Y28969941D01*
X20125589Y29123687D01*
X20169849Y29269589D01*
X20176195Y29290509D01*
X20180801Y29337281D01*
X20189000Y29420523D01*
X20189000Y29420531D01*
X20193281Y29464000D01*
X20189000Y29507469D01*
X20189000Y30113422D01*
X23734579Y33659000D01*
X28381428Y33659000D01*
X28381428Y33544000D01*
X28393688Y33419518D01*
X28429998Y33299820D01*
X28488963Y33189506D01*
X28568315Y33092815D01*
X28665006Y33013463D01*
X28775320Y32954498D01*
X28895018Y32918188D01*
X29019500Y32905928D01*
X30924500Y32905928D01*
X31048982Y32918188D01*
X31168680Y32954498D01*
X31278994Y33013463D01*
X31375685Y33092815D01*
X31455037Y33189506D01*
X31514002Y33299820D01*
X31550312Y33419518D01*
X31562572Y33544000D01*
X31562572Y34669485D01*
X33464500Y34669485D01*
X33464500Y34418514D01*
X33487470Y34185296D01*
X33578245Y33886051D01*
X33725655Y33610265D01*
X33924037Y33368537D01*
X34165766Y33170155D01*
X34441552Y33022745D01*
X34740797Y32931970D01*
X35052000Y32901319D01*
X35363204Y32931970D01*
X35662449Y33022745D01*
X35938235Y33170155D01*
X36179963Y33368537D01*
X36378345Y33610266D01*
X36525755Y33886052D01*
X36616530Y34185297D01*
X36639500Y34418515D01*
X36639500Y34669486D01*
X36616530Y34902704D01*
X36525755Y35201949D01*
X36378345Y35477735D01*
X36179963Y35719463D01*
X35938234Y35917845D01*
X35662448Y36065255D01*
X35363203Y36156030D01*
X35052000Y36186681D01*
X34740796Y36156030D01*
X34441551Y36065255D01*
X34165765Y35917845D01*
X33924037Y35719463D01*
X33725655Y35477734D01*
X33578245Y35201948D01*
X33487470Y34902703D01*
X33464500Y34669485D01*
X31562572Y34669485D01*
X31562572Y35544000D01*
X31550312Y35668482D01*
X31514002Y35788180D01*
X31455037Y35898494D01*
X31375685Y35995185D01*
X31278994Y36074537D01*
X31168680Y36133502D01*
X31048982Y36169812D01*
X30924500Y36182072D01*
X29019500Y36182072D01*
X28895018Y36169812D01*
X28775320Y36133502D01*
X28665006Y36074537D01*
X28568315Y35995185D01*
X28488963Y35898494D01*
X28429998Y35788180D01*
X28393688Y35668482D01*
X28381428Y35544000D01*
X28381428Y35429000D01*
X23411469Y35429000D01*
X23368000Y35433281D01*
X23324531Y35429000D01*
X23324523Y35429000D01*
X23209306Y35417652D01*
X23194509Y35416195D01*
X23143903Y35400843D01*
X23027687Y35365589D01*
X22873941Y35283411D01*
X22772953Y35200532D01*
X22772951Y35200530D01*
X22739183Y35172817D01*
X22711470Y35139049D01*
X18708951Y31136530D01*
X18675184Y31108817D01*
X18647471Y31075049D01*
X18647468Y31075046D01*
X18564590Y30974059D01*
X18482412Y30820313D01*
X18431805Y30653490D01*
X18414719Y30480000D01*
X18419001Y30436522D01*
X18419000Y29830579D01*
X17921422Y29333000D01*
X16766608Y29333000D01*
X16797929Y29436255D01*
X16813072Y29590000D01*
X16813072Y31240000D01*
X16797929Y31393745D01*
X16760000Y31518783D01*
X16760000Y33845976D01*
X16811405Y33908613D01*
X16893472Y34062149D01*
X16944008Y34228745D01*
X16961072Y34401999D01*
X16961072Y35702001D01*
X16944008Y35875255D01*
X16893472Y36041851D01*
X16811405Y36195387D01*
X16700962Y36329962D01*
X16566387Y36440405D01*
X16412851Y36522472D01*
X16246255Y36573008D01*
X16073001Y36590072D01*
X15422999Y36590072D01*
X15249745Y36573008D01*
X15083149Y36522472D01*
X14929613Y36440405D01*
X14795038Y36329962D01*
X14684595Y36195387D01*
X14602528Y36041851D01*
X14551992Y35875255D01*
X14534928Y35702001D01*
X14534928Y34401999D01*
X14551992Y34228745D01*
X14602528Y34062149D01*
X14684595Y33908613D01*
X14795038Y33774038D01*
X14929613Y33663595D01*
X14990001Y33631317D01*
X14990000Y31988281D01*
X14908745Y32012929D01*
X14755000Y32028072D01*
X14455000Y32028072D01*
X14301255Y32012929D01*
X14220000Y31988281D01*
X14220000Y34471531D01*
X14224281Y34515000D01*
X14220000Y34558469D01*
X14220000Y34558477D01*
X14207195Y34688490D01*
X14188505Y34750102D01*
X14156589Y34855314D01*
X14074411Y35009059D01*
X14011072Y35086237D01*
X14011072Y35702001D01*
X13994008Y35875255D01*
X13943472Y36041851D01*
X13861405Y36195387D01*
X13750962Y36329962D01*
X13616387Y36440405D01*
X13462851Y36522472D01*
X13296255Y36573008D01*
X13123001Y36590072D01*
X12472999Y36590072D01*
X12299745Y36573008D01*
X12133149Y36522472D01*
X11979613Y36440405D01*
X11845038Y36329962D01*
X11734595Y36195387D01*
X11652528Y36041851D01*
X11601992Y35875255D01*
X11584928Y35702001D01*
X11584928Y34401999D01*
X11601992Y34228745D01*
X11652528Y34062149D01*
X11734595Y33908613D01*
X11845038Y33774038D01*
X11979613Y33663595D01*
X12133149Y33581528D01*
X12299745Y33530992D01*
X12450001Y33516193D01*
X12450000Y31518783D01*
X12412071Y31393745D01*
X12396928Y31240000D01*
X12396928Y30728507D01*
X12144422Y30476000D01*
X10715647Y30476000D01*
X10703185Y30491185D01*
X10606494Y30570537D01*
X10496180Y30629502D01*
X10376482Y30665812D01*
X10252000Y30678072D01*
X9052000Y30678072D01*
X8927518Y30665812D01*
X8807820Y30629502D01*
X8697506Y30570537D01*
X8600815Y30491185D01*
X8521463Y30394494D01*
X8462498Y30284180D01*
X8426188Y30164482D01*
X8413928Y30040000D01*
X8413928Y29140000D01*
X8426188Y29015518D01*
X8462498Y28895820D01*
X8521463Y28785506D01*
X8600815Y28688815D01*
X8697506Y28609463D01*
X8807820Y28550498D01*
X8927518Y28514188D01*
X9052000Y28501928D01*
X10252000Y28501928D01*
X10376482Y28514188D01*
X10496180Y28550498D01*
X10606494Y28609463D01*
X10703185Y28688815D01*
X10717288Y28706000D01*
X12255686Y28706000D01*
X12205941Y28679411D01*
X12205939Y28679410D01*
X12205940Y28679410D01*
X12104953Y28596532D01*
X12104951Y28596530D01*
X12071183Y28568817D01*
X12043470Y28535049D01*
X11088956Y27580534D01*
X11055183Y27552817D01*
X10944589Y27418058D01*
X10862411Y27264312D01*
X10811805Y27097489D01*
X10799000Y26967476D01*
X10799000Y26967469D01*
X10794719Y26924000D01*
X10799000Y26880530D01*
X10799001Y25777000D01*
X10711469Y25777000D01*
X10668000Y25781281D01*
X10624531Y25777000D01*
X10624523Y25777000D01*
X10494510Y25764195D01*
X10327687Y25713589D01*
X10187185Y25638490D01*
X10173941Y25631411D01*
X10072953Y25548532D01*
X10072951Y25548530D01*
X10039183Y25520817D01*
X10011470Y25487049D01*
X4028072Y19503650D01*
X4028072Y21170000D01*
X4015812Y21294482D01*
X3979502Y21414180D01*
X3920537Y21524494D01*
X3841185Y21621185D01*
X3744494Y21700537D01*
X3634180Y21759502D01*
X3514482Y21795812D01*
X3390000Y21808072D01*
X1690000Y21808072D01*
X1565518Y21795812D01*
X1445820Y21759502D01*
X1335506Y21700537D01*
X1238815Y21621185D01*
X1159463Y21524494D01*
X1100498Y21414180D01*
X1064188Y21294482D01*
X1051928Y21170000D01*
X127000Y21170000D01*
X127000Y28014600D01*
X463000Y28014600D01*
X463000Y27505400D01*
X562340Y27005983D01*
X757202Y26535543D01*
X1040099Y26112158D01*
X1400158Y25752099D01*
X1823543Y25469202D01*
X2293983Y25274340D01*
X2793400Y25175000D01*
X3302600Y25175000D01*
X3802017Y25274340D01*
X4272457Y25469202D01*
X4695842Y25752099D01*
X5055901Y26112158D01*
X5338798Y26535543D01*
X5533660Y27005983D01*
X5633000Y27505400D01*
X5633000Y28014600D01*
X5533660Y28514017D01*
X5338798Y28984457D01*
X5055901Y29407842D01*
X4695842Y29767901D01*
X4272457Y30050798D01*
X3802017Y30245660D01*
X3302600Y30345000D01*
X2793400Y30345000D01*
X2293983Y30245660D01*
X1823543Y30050798D01*
X1400158Y29767901D01*
X1040099Y29407842D01*
X757202Y28984457D01*
X562340Y28514017D01*
X463000Y28014600D01*
X127000Y28014600D01*
X127000Y32105939D01*
X8617000Y32105939D01*
X8617000Y31902061D01*
X8656774Y31702102D01*
X8734795Y31513744D01*
X8848063Y31344226D01*
X8992226Y31200063D01*
X9026875Y31176912D01*
X9072506Y31139463D01*
X9124570Y31111634D01*
X9161744Y31086795D01*
X9350102Y31008774D01*
X9550061Y30969000D01*
X9753939Y30969000D01*
X9953898Y31008774D01*
X10142256Y31086795D01*
X10179430Y31111634D01*
X10231494Y31139463D01*
X10277125Y31176912D01*
X10311774Y31200063D01*
X10455937Y31344226D01*
X10569205Y31513744D01*
X10647226Y31702102D01*
X10687000Y31902061D01*
X10687000Y32105939D01*
X10647226Y32305898D01*
X10569205Y32494256D01*
X10455937Y32663774D01*
X10311774Y32807937D01*
X10142256Y32921205D01*
X9953898Y32999226D01*
X9753939Y33039000D01*
X9550061Y33039000D01*
X9350102Y32999226D01*
X9161744Y32921205D01*
X8992226Y32807937D01*
X8848063Y32663774D01*
X8734795Y32494256D01*
X8656774Y32305898D01*
X8617000Y32105939D01*
X127000Y32105939D01*
X127000Y45085000D01*
X57277000Y45085000D01*
X57277000Y28089479D01*
G37*
%TD.AperFunction*%
%TD*%
M02*
